<svg width="19" height="16" fill="none" xmlns="http://www.w3.org/2000/svg"><path fill-rule="evenodd" clip-rule="evenodd" d="M15.002.223c-1.359-.422-2.866-.233-4.1.46a5.08 5.08 0 00-1.208.942L7.681 3.974l4.673 4.672.353.354-.353.354-5.084 5.083c.407.326.835.665 1.283 1.02l.01.008.47.374a.742.742 0 00.923 0l.47-.374.01-.008c3.543-2.81 5.784-4.589 7.073-6.935l.009-.016.002-.003.032-.06.003-.004c.926-1.703 1.147-3.354.77-4.772l-.003-.012a4.87 4.87 0 00-.741-1.573A5.023 5.023 0 0015.655.48l-.017-.01a4.774 4.774 0 00-.635-.247h-.001zM6.487 13.806L11.293 9 6.646 4.354l-.327-.328.301-.351L8.784 1.15A5.128 5.128 0 008.09.682C6.663-.12 4.869-.246 3.352.471L3.35.472l-.011.006L3.33.48C2.04 1.105 1.065 2.22.68 3.655l-.004.012c-.376 1.418-.16 3.07.76 4.774v.002l.033.06v.001l.01.017c1.018 1.853 2.63 3.352 5.008 5.285z" fill="#828282"/></svg>