<svg width="28" height="28" fill="none" xmlns="http://www.w3.org/2000/svg"><path d="M26.994 6.895h-5.45V1.002A1 1 0 0020.536 0H7.463a1.008 1.008 0 00-1.006 1.002v5.893H1.006A1.008 1.008 0 000 7.897V19.17a1 1 0 001.006 1.002h4.103v6.825A1 1 0 006.115 28h15.74a1.008 1.008 0 001.006-1.002v-6.825h4.133A1.008 1.008 0 0028 19.171V7.897a1 1 0 00-1.006-1.002zM8.448 2.005h11.064v4.89H8.448v-4.89zm12.401 23.99H7.121V18.19h13.728v7.807zm5.14-7.826H22.86v-1.002a1 1 0 00-1.006-1.002H6.115a1.007 1.007 0 00-1.006 1.002v1.002H2.011v-9.27h23.977v9.27z" fill="#004EA6"/></svg>