<svg width="28" height="24" fill="none" xmlns="http://www.w3.org/2000/svg"><path fill-rule="evenodd" clip-rule="evenodd" d="M14 .916a7.833 7.833 0 00-4.984 13.877c-2.84 1.001-5.754 2.94-8.031 6.213-.43.618-.252 1.45.384 1.856.63.402 1.482.242 1.908-.369 3.107-4.467 7.534-5.91 10.723-5.91 3.19 0 7.617 1.443 10.724 5.91.425.611 1.278.77 1.908.369a1.306 1.306 0 00.384-1.856c-2.277-3.273-5.191-5.212-8.031-6.213A7.834 7.834 0 0014 .916zm-3.653 4.18a5.167 5.167 0 117.307 7.307 5.167 5.167 0 01-7.307-7.307z" fill="#141414"/></svg>