<svg width="210" height="44" fill="none" xmlns="http://www.w3.org/2000/svg"><path d="M70.22 14.172h18.938l-.936 4.389H76.2l-.443 2.15h9.735l-.936 4.388h-9.735l-.493 2.367h12.613l-.986 4.616h-19.53l3.794-17.91zm22.808 0h6.934l-1.304 6.197 7.685-6.197h9.383l-8.84 6.463 5.778 11.447h-8.613l-3.279-7.283-3.576 2.467-1.007 4.816h-6.934l3.773-17.91zm29.65 4.539h-6.458l.966-4.54h19.896l-.966 4.54h-6.488l-2.839 13.37h-6.951l2.84-13.37zm16.438-4.539h13.381c4.487 0 6.824 1.676 6.824 4.517 0 4.487-3.698 7.1-9.289 7.1h-6.459l-1.331 6.293h-6.932l3.806-17.91zm6.114 3.846l-.809 3.866h3.796c2.071 0 3.472-.572 3.472-2.544.019-1.036-.888-1.332-2.663-1.332h-3.796v.01zm16.13 9.734c.641.216 1.203.344 1.725.344 1.034 0 1.852-.471 2.443-1.453l-5.813-12.471h7.587l2.345 7.836 4.838-7.826h7.962l-10.149 12.912c-1.951 2.475-2.641 3.094-3.35 3.712-1.36 1.228-3.232 1.67-4.907 1.67-1.301 0-2.365-.197-3.597-.472l.916-4.252zm-94.64-13.58H56.24l-15.301 17.88h.029l-.03.03h8.273l9.385-12.256-2.59 12.256h6.924l3.791-17.91zm116.569 0h10.27l.71 10.904 5.599-10.904H210l-3.795 17.91h-6.436l2.957-13.993-7.195 13.993h-5.421l-1.232-13.993-2.957 13.993h-6.427l3.795-17.91zM38.173 11.069c4.085 7.07-1.213 17.756-11.829 23.871a31.527 31.527 0 01-4.4 2.117l.908 1.222c3.305-.581 6.768-1.822 10.093-3.743 10.615-6.115 15.913-16.81 11.829-23.871-2.861-4.954-9.58-6.815-16.999-5.367 4.607.413 8.416 2.353 10.398 5.77z" fill="#004EA6"/><path d="M25.792 4.774L33.087.428l-2.355 11.263-4.94-6.917zM7.979 32.623C3.894 25.552 9.192 14.867 19.808 8.75a31.522 31.522 0 014.4-2.117l-.908-1.22c-3.305.58-6.768 1.822-10.092 3.742-10.616 6.116-15.914 16.81-11.83 23.872 2.862 4.953 9.58 6.814 17 5.367-4.608-.414-8.416-2.354-10.4-5.771z" fill="#004EA6"/><path d="M20.36 38.918l-7.295 4.345L15.42 32l4.94 6.918zm22.545-13.826l.984-4.428H30.013l-.984 4.428h13.876z" fill="#004EA6"/></svg>