<svg fill="none" xmlns="http://www.w3.org/2000/svg"><path d="M94.362 18.841h25.181l-1.245 5.835h-15.983l-.59 2.859h12.944l-1.245 5.835H100.48l-.655 3.147h16.77l-1.31 6.137H89.318l5.044-23.813zm30.327 0h9.219l-1.734 8.24 10.218-8.24h12.476l-11.754 8.594 7.683 15.22h-11.452l-4.36-9.684-4.754 3.28-1.34 6.403h-9.219l5.017-23.813zm39.421 6.035h-8.587l1.285-6.035h26.454l-1.285 6.035h-8.626l-3.775 17.778h-9.242l3.776-17.778zm21.857-6.035h17.792c5.965 0 9.072 2.23 9.072 6.006 0 5.966-4.916 9.441-12.35 9.441h-8.588l-1.77 8.366h-9.217l5.061-23.813zm8.129 5.114l-1.075 5.14h5.047c2.754 0 4.616-.76 4.616-3.383.026-1.377-1.18-1.77-3.54-1.77h-5.048v.013zm21.447 12.943c.852.287 1.599.456 2.293.456 1.376 0 2.463-.626 3.249-1.932l-7.73-16.58h10.088l3.118 10.418 6.433-10.406h10.586l-13.494 17.169c-2.594 3.29-3.512 4.112-4.455 4.935-1.808 1.632-4.297 2.22-6.524 2.22-1.729 0-3.144-.262-4.782-.627l1.218-5.654zM89.71 18.841H75.774L55.43 42.615h.039l-.04.04h11l12.478-16.296-3.443 16.295h9.205l5.04-23.813zm154.99 0h13.655l.944 14.498 7.444-14.498h13.472l-5.046 23.813h-8.557l3.931-18.604-9.567 18.604h-7.207L252.13 24.05l-3.931 18.604h-8.545l5.046-23.813zM51.752 14.719c5.43 9.401-1.614 23.608-15.728 31.74a41.914 41.914 0 01-5.85 2.814l1.207 1.624c4.394-.773 8.998-2.422 13.419-4.976 14.114-8.131 21.158-22.35 15.727-31.74-3.804-6.585-12.736-9.06-22.6-7.135 6.125.55 11.188 3.13 13.825 7.673z" fill="#fff"/><path d="M35.29 6.347L44.99.57l-3.132 14.975-6.569-9.198zM11.607 43.374c-5.43-9.401 1.614-23.608 15.728-31.739a41.918 41.918 0 015.85-2.815L31.98 7.196c-4.395.773-8.999 2.423-13.42 4.976C4.446 20.303-2.598 34.523 2.833 43.912c3.804 6.585 12.737 9.06 22.601 7.135-6.126-.55-11.189-3.129-13.825-7.673z" fill="#fff"/><path d="M28.07 51.746l-9.7 5.778 3.131-14.975 6.569 9.197zm29.974-18.382l1.309-5.888H40.904l-1.308 5.888h18.448z" fill="#fff"/></svg>