<svg width="29" height="26" fill="none" xmlns="http://www.w3.org/2000/svg"><path fill-rule="evenodd" clip-rule="evenodd" d="M25.666 7.354l-.017-.02a1.04 1.04 0 00-.291-.245.428.428 0 00-.1-.042H8.989l2.352 8.9a.411.411 0 00.155.224c.084.063.193.1.311.102h11.337c.27 0 .424-.173.453-.294l.003-.012 2.139-8.346.004-.014a.241.241 0 00.002-.117.273.273 0 00-.06-.116l-.018-.02zm-13.865 11.1a2.823 2.823 0 01-1.678-.554 2.589 2.589 0 01-.965-1.418L5.69 3.35a.914.914 0 00-.295-.456.956.956 0 00-.614-.22h-2.9C1.4 2.675 1 2.296 1 1.838a.821.821 0 01.259-.591A.909.909 0 011.88 1h2.9c.609.002 1.2.197 1.68.554a2.594 2.594 0 01.964 1.418l.54 1.893h17.31c.825 0 1.62.485 2.133 1.106.26.301.442.656.531 1.037.089.38.082.775-.02 1.153l-2.133 8.32c-.283 1.163-1.392 1.973-2.642 1.973H11.8zM12.25 25c1.243 0 2.25-.977 2.25-2.182s-1.007-2.182-2.25-2.182-2.25.977-2.25 2.182S11.007 25 12.25 25zm10.125 0c1.243 0 2.25-.977 2.25-2.182s-1.007-2.182-2.25-2.182-2.25.977-2.25 2.182S21.132 25 22.375 25z" fill="#141414"/><path d="M4.781 2.675c.233 0 .448.081.614.22a.914.914 0 01.295.456l3.468 13.13a2.59 2.59 0 00.965 1.419c.479.357 1.07.553 1.678.555h11.342c1.25 0 2.359-.811 2.642-1.973l2.133-8.321c.102-.378.109-.773.02-1.153a2.429 2.429 0 00-.531-1.037c-.512-.621-1.308-1.106-2.134-1.106H7.963l-.539-1.893a2.508 2.508 0 00-.02-.074 2.594 2.594 0 00-.945-1.344A2.827 2.827 0 004.78 1h-2.9a.909.909 0 00-.621.247.821.821 0 00-.259.59c0 .46.399.838.881.838m2.9 0v0zm0 0h-2.9m0 0v0zM25.65 7.334l.017.02.017.02a.273.273 0 01.06.116.241.241 0 01-.001.117l-.004.014-2.14 8.346-.002.012c-.03.12-.184.294-.453.294H11.806a.528.528 0 01-.31-.102.411.411 0 01-.156-.224l-2.351-8.9h16.27a.428.428 0 01.099.042c.097.052.205.14.291.245zM14.5 22.818c0 1.205-1.007 2.182-2.25 2.182S10 24.023 10 22.818s1.007-2.182 2.25-2.182 2.25.977 2.25 2.182zm10.125 0c0 1.205-1.007 2.182-2.25 2.182s-2.25-.977-2.25-2.182 1.007-2.182 2.25-2.182 2.25.977 2.25 2.182z" stroke="#141414" stroke-width=".5"/></svg>