<svg width="63" height="59" fill="none" xmlns="http://www.w3.org/2000/svg"><path d="M51.752 14.719c5.43 9.401-1.614 23.608-15.728 31.74a41.914 41.914 0 01-5.85 2.814l1.207 1.624c4.394-.773 8.998-2.422 13.419-4.976 14.114-8.13 21.158-22.35 15.727-31.74-3.804-6.585-12.736-9.06-22.6-7.135 6.125.55 11.188 3.13 13.825 7.673z" fill="#141414"/><path d="M35.29 6.347L44.99.57l-3.132 14.975-6.569-9.198zM11.607 43.374c-5.43-9.401 1.614-23.608 15.728-31.74a41.93 41.93 0 015.85-2.815L31.98 7.196c-4.395.772-8.999 2.422-13.42 4.976C4.446 20.302-2.598 34.522 2.833 43.91c3.804 6.586 12.737 9.06 22.601 7.136-6.126-.55-11.189-3.13-13.825-7.673z" fill="#141414"/><path d="M28.07 51.746l-9.7 5.777 3.131-14.975 6.569 9.198zm29.974-18.382l1.309-5.887H40.904l-1.308 5.887h18.448z" fill="#141414"/></svg>