<svg width="45" height="60" fill="none" xmlns="http://www.w3.org/2000/svg"><circle cx="22.5" cy="22.5" r="22.5" fill="#fff"/><path d="M32.319 15.797c2.654 4.596-.789 11.54-7.688 15.514a20.491 20.491 0 01-2.86 1.376l.59.794c2.148-.378 4.399-1.184 6.56-2.432 6.898-3.974 10.342-10.925 7.687-15.514-1.86-3.22-6.226-4.429-11.047-3.488 2.994.269 5.469 1.53 6.758 3.75z" fill="#004EA6"/><path d="M24.273 11.705l4.741-2.824-1.53 7.32-3.21-4.496zM12.69 29.804c-2.655-4.595.788-11.54 7.687-15.514a20.491 20.491 0 012.86-1.376l-.59-.793c-2.148.377-4.399 1.184-6.56 2.432C9.188 18.527 5.745 25.478 8.4 30.067c1.86 3.219 6.226 4.429 11.047 3.488-2.994-.269-5.47-1.53-6.758-3.75z" fill="#004EA6"/><path d="M20.735 33.896l-4.742 2.824 1.531-7.32 3.21 4.496zm14.652-8.985l.64-2.878h-9.018l-.64 2.878h9.018z" fill="#004EA6"/><path d="M21.7 58.933L4.5 36h36L23.3 58.933a1 1 0 01-1.6 0z" fill="#fff"/></svg>