<svg width="40" height="30" fill="none" xmlns="http://www.w3.org/2000/svg"><path d="M7.643 29.551v-1.937a1.108 1.108 0 00-.071-.48 1.146 1.146 0 00-.272-.409 1.203 1.203 0 00-.422-.265 1.243 1.243 0 00-.498-.074 1.286 1.286 0 00-.643.127 1.227 1.227 0 00-.486.422 1.16 1.16 0 00-.453-.414 1.219 1.219 0 00-.61-.135 1.097 1.097 0 00-.533.11c-.165.08-.306.2-.407.349v-.381h-.7v3.087h.707v-1.698a.696.696 0 01.192-.588.78.78 0 01.594-.232c.464 0 .699.29.699.813v1.718h.706v-1.711a.7.7 0 01.193-.587.782.782 0 01.593-.233c.477 0 .706.29.706.813v1.718l.705-.013zm10.442-3.087h-1.15v-.937h-.705v.937h-.639v.614h.652v1.42c0 .717.29 1.144 1.116 1.144a1.69 1.69 0 00.874-.24l-.202-.574a1.33 1.33 0 01-.618.174c-.336 0-.464-.206-.464-.516v-1.409h1.142l-.006-.613zm5.962-.078a.98.98 0 00-.489.114.931.931 0 00-.358.338v-.374h-.693v3.087h.7v-1.73c0-.511.228-.795.671-.795.15-.002.298.024.437.077l.215-.646a1.55 1.55 0 00-.497-.084l.014.013zm-9.014.323a2.48 2.48 0 00-1.31-.323c-.814 0-1.345.375-1.345.989 0 .503.39.814 1.11.91l.336.046c.383.051.564.148.564.323 0 .239-.255.374-.732.374-.384.01-.76-.103-1.07-.323l-.335.524c.407.273.895.413 1.391.4.928 0 1.465-.42 1.465-1.008 0-.587-.423-.826-1.122-.923l-.336-.046c-.303-.038-.545-.097-.545-.303 0-.207.229-.362.612-.362.354.004.701.095 1.008.265l.31-.543zm18.722-.323a.98.98 0 00-.488.114.931.931 0 00-.359.338v-.374h-.692v3.087h.699v-1.73c0-.511.229-.795.672-.795.15-.002.298.024.437.077l.215-.646a1.55 1.55 0 00-.497-.084l.013.013zm-9.006 1.615c-.008.217.03.433.114.635s.21.384.372.537c.16.152.353.27.565.346.211.076.437.11.663.097.42.02.832-.11 1.156-.368l-.336-.543a1.449 1.449 0 01-.84.278 1.05 1.05 0 01-.676-.316.97.97 0 01-.273-.672c0-.25.098-.49.273-.672.176-.184.417-.297.676-.317.303.004.598.101.84.278l.336-.542a1.725 1.725 0 00-1.156-.369 1.683 1.683 0 00-.663.098 1.632 1.632 0 00-.565.346 1.556 1.556 0 00-.372.536 1.505 1.505 0 00-.114.635v.013zm6.546 0v-1.537h-.699v.375a1.212 1.212 0 00-.447-.343 1.263 1.263 0 00-.56-.11c-.447 0-.874.17-1.19.473a1.584 1.584 0 00-.491 1.142c0 .428.177.84.492 1.142.315.303.742.473 1.188.473.193.007.386-.03.56-.11.176-.078.33-.195.448-.342v.374h.7v-1.537zm-2.6 0a.911.911 0 01.19-.502.968.968 0 01.446-.32c.178-.062.37-.073.555-.031a.982.982 0 01.483.266.92.92 0 01.25.477.9.9 0 01-.062.532.943.943 0 01-.356.41 1 1 0 01-.532.157.999.999 0 01-.713-.29.895.895 0 01-.262-.699zm-8.436-1.615a1.71 1.71 0 00-1.181.49c-.31.306-.482.72-.476 1.148.007.428.19.836.51 1.135.319.299.748.463 1.194.457.484.024.96-.126 1.334-.42l-.336-.497a1.568 1.568 0 01-.934.323.915.915 0 01-.64-.19.847.847 0 01-.321-.566h2.386v-.258c0-.97-.625-1.615-1.526-1.615l-.01-.007zm0 .601a.824.824 0 01.568.213.765.765 0 01.245.536h-1.68a.782.782 0 01.268-.541c.16-.14.37-.215.586-.208h.013zm17.512 1.02v-2.783H37.1v1.614a1.213 1.213 0 00-.447-.343 1.263 1.263 0 00-.561-.109c-.446 0-.873.17-1.188.473a1.584 1.584 0 00-.492 1.142c0 .428.176.84.492 1.142.315.303.742.473 1.188.473.193.007.385-.03.56-.11.176-.078.33-.195.448-.342v.374h.672v-1.53zm1.166 1.095a.34.34 0 01.232.087.32.32 0 01.07.098.29.29 0 01-.07.335.339.339 0 01-.104.065.328.328 0 01-.128.026.345.345 0 01-.18-.052.292.292 0 01-.052-.472.34.34 0 01.242-.087h-.01zm0 .546a.249.249 0 00.175-.07.234.234 0 000-.324.25.25 0 00-.272-.051.246.246 0 00-.08.051.234.234 0 000 .323.258.258 0 00.188.071h-.01zm.02-.384a.138.138 0 01.088.026.078.078 0 01.03.068.075.075 0 01-.023.058.12.12 0 01-.071.029l.097.106h-.077l-.09-.106h-.03v.106h-.065v-.284l.141-.003zm-.074.055v.077h.074a.073.073 0 00.04 0 .03.03 0 000-.029.03.03 0 000-.029.073.073 0 00-.04 0l-.074-.02zm-3.696-1.311a.91.91 0 01.19-.503.97.97 0 01.446-.32c.178-.062.371-.073.556-.031a.981.981 0 01.482.267.9.9 0 01.188 1.009.943.943 0 01-.355.41.999.999 0 01-.533.156.998.998 0 01-.712-.29.893.893 0 01-.262-.7zm-23.602 0v-1.544h-.699v.375a1.212 1.212 0 00-.447-.343 1.263 1.263 0 00-.56-.11c-.446 0-.874.17-1.189.473a1.584 1.584 0 00-.492 1.142c0 .428.177.84.492 1.142.315.303.743.473 1.188.473a1.24 1.24 0 001.008-.452v.374h.7v-1.53zm-2.6 0a.911.911 0 01.19-.503.97.97 0 01.446-.32c.178-.062.371-.073.555-.031a.981.981 0 01.483.267.9.9 0 01.188 1.009.943.943 0 01-.356.41 1 1 0 01-.532.156.997.997 0 01-.717-.287.894.894 0 01-.265-.701h.007z" fill="#fff" fill-opacity=".5"/><path d="M25.389 2.936H14.803v18.283h10.586V2.936z" fill="#FF5F00"/><path d="M15.474 12.08c-.002-1.761.413-3.5 1.214-5.084a11.707 11.707 0 013.407-4.06A12.37 12.37 0 0013.91.518 12.528 12.528 0 007.332 1.62a11.947 11.947 0 00-4.968 4.29 11.295 11.295 0 00-1.843 6.168c0 2.182.64 4.32 1.843 6.169a11.947 11.947 0 004.968 4.289 12.528 12.528 0 006.578 1.103 12.37 12.37 0 006.185-2.42 11.707 11.707 0 01-3.406-4.058 11.234 11.234 0 01-1.215-5.081z" fill="#EB001B"/><path d="M39.671 12.079c0 2.182-.639 4.32-1.843 6.169a11.947 11.947 0 01-4.968 4.289 12.527 12.527 0 01-6.58 1.102 12.37 12.37 0 01-6.184-2.42 11.726 11.726 0 003.405-4.06 11.254 11.254 0 001.217-5.082c0-1.76-.416-3.498-1.217-5.082a11.726 11.726 0 00-3.405-4.06A12.37 12.37 0 0126.28.516a12.528 12.528 0 016.579 1.103 11.947 11.947 0 014.968 4.289 11.295 11.295 0 011.843 6.169v.003zm-1.156 7.202v-.375h.158v-.077h-.4v.077h.172v.375h.07zm.777 0v-.452h-.121l-.141.323-.142-.323h-.107v.452h.087v-.34l.131.295h.091l.131-.294v.342l.07-.003z" fill="#F7B500"/></svg>