<svg width="13" height="16" viewBox="0 0 13 16" fill="none" xmlns="http://www.w3.org/2000/svg">
<path fill-rule="evenodd" clip-rule="evenodd" d="M12.3633 5.98502C12.3633 7.10231 12.0564 8.14809 11.522 9.04305H11.5321L11.4797 9.11291C11.2865 9.42672 11.065 9.7214 10.8189 9.99342L6.31152 16L1.89569 9.98018C0.942861 8.9207 0.363281 7.52038 0.363281 5.98502C0.363281 2.67959 3.04957 0 6.36328 0C9.67699 0 12.3633 2.67959 12.3633 5.98502ZM6.36328 8.47879C7.74399 8.47879 8.86328 7.3623 8.86328 5.98503C8.86328 4.60777 7.74399 3.49127 6.36328 3.49127C4.98257 3.49127 3.86328 4.60777 3.86328 5.98503C3.86328 7.3623 4.98257 8.47879 6.36328 8.47879Z" fill="#409AFF"/>
</svg>
