<svg width="30" height="29" xmlns="http://www.w3.org/2000/svg"><path d="M15.589 16.2h12.77a1.598 1.598 0 100-3.197H15.59a1.598 1.598 0 000 3.197zm0 9.786h12.77a1.598 1.598 0 100-3.197H15.59a1.598 1.598 0 000 3.197zm0-19.574h12.77a1.598 1.598 0 100-3.197H15.59a1.598 1.598 0 000 3.197zM1.283 3.281a1.598 1.598 0 000 2.26l3.641 3.642 4.76-5.85a1.599 1.599 0 00-2.481-2.018L4.68 4.417 3.543 3.281a1.598 1.598 0 00-2.26 0zm0 9.787a1.598 1.598 0 000 2.26l3.641 3.641 4.76-5.85a1.599 1.599 0 00-2.48-2.017L4.68 14.204l-1.137-1.136a1.598 1.598 0 00-2.26 0zm0 9.787a1.598 1.598 0 000 2.26l3.641 3.641 4.76-5.85a1.599 1.599 0 00-2.48-2.017L4.68 23.991l-1.137-1.136a1.598 1.598 0 00-2.26 0z" fill="#141414"/></svg>