<svg width="54" height="16" fill="none" xmlns="http://www.w3.org/2000/svg"><path d="M27.927 5.095c-.03 2.22 2.165 3.458 3.82 4.195 1.699.756 2.27 1.24 2.263 1.916-.013 1.034-1.356 1.49-2.612 1.508-2.193.032-3.467-.54-4.48-.973l-.79 3.377c1.016.428 2.899.802 4.851.818 4.583 0 7.58-2.067 7.597-5.272.018-4.068-6.157-4.293-6.115-6.112.015-.551.59-1.14 1.852-1.289.624-.076 2.348-.133 4.302.69l.767-3.268A12.672 12.672 0 0035.299 0c-4.313 0-7.347 2.095-7.372 5.095zM46.752.282c-.837 0-1.542.446-1.857 1.13L38.35 15.696h4.58l.91-2.301h5.596l.529 2.301H54L50.478.282h-3.726zm.64 4.164l1.322 5.788h-3.62l2.298-5.788zM22.375.282l-3.61 15.414h4.364L26.737.282h-4.362zm-6.455 0l-4.542 10.491-1.837-8.92C9.325.855 8.474.281 7.529.281H.104L0 .729c1.524.302 3.256.79 4.305 1.312.642.318.825.597 1.036 1.354l3.48 12.301h4.612L20.503.282H15.92z" fill="url(#paint0_linear)"/><defs><linearGradient id="paint0_linear" x1="24.826" y1="16.256" x2="25.248" y2="-.113" gradientUnits="userSpaceOnUse"><stop stop-color="#222357"/><stop offset="1" stop-color="#254AA5"/></linearGradient></defs></svg>