<?xml version="1.0" standalone="no"?>
<!DOCTYPE svg PUBLIC "-//W3C//DTD SVG 1.1//EN" "http://www.w3.org/Graphics/SVG/1.1/DTD/svg11.dtd" >
<svg xmlns="http://www.w3.org/2000/svg" xmlns:xlink="http://www.w3.org/1999/xlink" version="1.1">
<metadata>
Created by FontForge 20191125 at Mon Oct 21 07:27:37 2002
 By convertio
Copyright 1996 TypeMarket, (095)142-77-12, Designer: S. Shanovich
</metadata>
<defs>
<font id="HeliosExtBlack" horiz-adv-x="960" >
  <font-face 
    font-family="HeliosExtBlack"
    font-weight="900"
    font-stretch="normal"
    units-per-em="1000"
    panose-1="4 0 10 0 0 0 0 0 0 0"
    ascent="763"
    descent="-237"
    x-height="562"
    cap-height="726"
    bbox="-60 -237 1642 953"
    underline-thickness="162"
    underline-position="-129"
    stemh="173"
    stemv="250"
    unicode-range="U+0020-2122"
  />
<missing-glyph horiz-adv-x="500" 
 />
    <glyph glyph-name=".notdef" horiz-adv-x="500" 
 />
    <glyph glyph-name="space" unicode=" " horiz-adv-x="481" 
 />
    <glyph glyph-name="space" unicode="&#xa0;" horiz-adv-x="481" 
 />
    <glyph glyph-name="exclam" unicode="!" horiz-adv-x="442" 
d="M89 0v232h264v-232h-264zM106 283l-26 443h281l-25 -443h-230z" />
    <glyph glyph-name="quotedbl" unicode="&#x22;" horiz-adv-x="372" 
d="M160 707v-277h-127v277h127zM339 707v-277h-128v277h128z" />
    <glyph glyph-name="numbersign" unicode="#" horiz-adv-x="773" 
d="M460 722l-63 -180h112l63 180h142l-64 -180h126l-49 -133h-124l-37 -104h127l-50 -133h-124l-65 -180h-141l64 180h-112l-64 -180h-142l65 180h-127l49 133h125l36 104h-127l49 133h126l64 180h141zM464 409h-117l-38 -104h117z" />
    <glyph glyph-name="dollar" unicode="$" 
d="M427 -74v73h-18c-209 0 -329 85 -345 237h300c6 -45 33 -66 81 -67v105c-260 21 -377 66 -377 209c0 135 124 219 359 225v65h103v-65c217 -4 330 -75 344 -222h-287c-7 41 -31 61 -76 64v-97c264 -15 385 -66 385 -214c0 -152 -123 -235 -366 -240v-73h-103zM511 167
c55 1 84 17 84 49s-28 51 -80 51h-4v-100zM445 461v93c-55 0 -83 -16 -83 -47c0 -32 27 -45 83 -46z" />
    <glyph glyph-name="percent" unicode="%" horiz-adv-x="1138" 
d="M37 532c0 122 90 194 251 194c160 0 249 -72 249 -194c0 -123 -89 -195 -249 -195c-161 0 -251 72 -251 195zM287 627c-58 0 -95 -37 -95 -96s36 -95 95 -95c58 0 95 36 95 95s-37 96 -95 96zM205 -19l602 745h126l-602 -745h-126zM601 176c0 123 90 195 250 195
c161 0 250 -72 250 -195c0 -122 -89 -195 -250 -195c-160 0 -250 73 -250 195zM850 272c-57 0 -94 -37 -94 -96s36 -95 94 -95c59 0 96 36 96 95s-37 96 -96 96z" />
    <glyph glyph-name="ampersand" unicode="&#x26;" horiz-adv-x="1054" 
d="M725 0l-57 56c-86 -53 -187 -78 -309 -78c-193 0 -312 102 -312 238c0 115 75 201 202 223c-40 28 -62 70 -62 121c0 114 103 179 296 179c200 0 306 -68 306 -179c0 -86 -61 -142 -179 -155l123 -108c53 32 104 80 151 140l122 -109c-40 -56 -88 -104 -141 -146
l202 -182h-342zM537 176l-166 152c-33 -19 -49 -45 -49 -79c0 -54 53 -101 122 -101c32 0 62 9 93 28zM502 502c45 15 67 37 67 63c0 25 -23 43 -63 43c-41 0 -63 -14 -63 -38c0 -21 20 -44 59 -68z" />
    <glyph glyph-name="quotesingle" unicode="'" horiz-adv-x="192" 
d="M159 707v-277h-126v277h126z" />
    <glyph glyph-name="parenleft" unicode="(" horiz-adv-x="516" 
d="M492 -208c-9 0 -19 -1 -28 -1c-280 0 -430 162 -430 470s150 471 430 471c9 0 19 -1 28 -1v-204h-15c-126 0 -184 -88 -184 -266s58 -265 184 -265h15v-204z" />
    <glyph glyph-name="parenright" unicode=")" horiz-adv-x="516" 
d="M24 731c9 0 19 1 28 1c280 0 430 -163 430 -471s-150 -470 -430 -470c-9 0 -19 1 -28 1v204h15c126 0 184 87 184 265s-58 266 -184 266h-15v204z" />
    <glyph glyph-name="asterisk" unicode="*" horiz-adv-x="652" 
d="M326 390l-89 -123l-107 76l90 125l-145 47l40 125l146 -48v153h130v-153l146 48l40 -125l-144 -47l89 -125l-107 -76z" />
    <glyph glyph-name="plus" unicode="+" horiz-adv-x="837" 
d="M487 598v-232h225v-133h-225v-233h-137v233h-225v133h225v232h137z" />
    <glyph glyph-name="comma" unicode="," horiz-adv-x="480" 
d="M108 0v232h264v-154c0 -68 -8 -114 -61 -155c-43 -34 -100 -60 -169 -80l-23 92c44 15 65 33 66 65h-77z" />
    <glyph glyph-name="hyphenminus" horiz-adv-x="488" 
d="M62 183v196h365v-196h-365z" />
    <glyph glyph-name="period" unicode="." horiz-adv-x="480" 
d="M108 0v233h264v-233h-264z" />
    <glyph glyph-name="slash" unicode="/" horiz-adv-x="479" 
d="M-36 -93l393 838h124l-390 -838h-127z" />
    <glyph glyph-name="zero" unicode="0" 
d="M480 544c-103 0 -170 -72 -170 -190s67 -191 170 -191s170 72 170 191s-67 190 -170 190zM35 354c0 235 159 372 445 372s445 -137 445 -372s-159 -373 -445 -373s-445 138 -445 373z" />
    <glyph glyph-name="one" unicode="1" horiz-adv-x="675" 
d="M279 0v458c-48 -16 -93 -25 -138 -27v178c88 15 150 48 187 99h202v-708h-251z" />
    <glyph glyph-name="two" unicode="2" 
d="M18 0c11 233 115 339 357 396c159 38 247 38 247 94c0 37 -40 57 -120 57c-105 0 -155 -29 -155 -97v-2h-303c8 186 153 278 436 278c291 0 437 -79 437 -232c0 -123 -74 -181 -239 -217c-171 -38 -296 -43 -354 -97h578v-180h-884z" />
    <glyph glyph-name="three" unicode="3" 
d="M28 240h291c15 -51 67 -73 160 -73c97 0 144 19 144 63c0 49 -42 61 -134 61h-156v167h144c84 0 127 5 127 46c0 36 -44 54 -131 54c-68 0 -106 -11 -113 -38h-306c11 147 145 206 415 206c293 0 433 -57 433 -197c0 -78 -42 -127 -124 -144c97 -19 145 -74 145 -165
c0 -161 -145 -237 -440 -237c-301 0 -447 72 -455 257z" />
    <glyph glyph-name="four" unicode="4" 
d="M547 0v112h-511v183l405 413h357v-422h127v-174h-127v-112h-251zM550 282v263l-259 -263h259z" />
    <glyph glyph-name="five" unicode="5" 
d="M29 235h296c5 -46 57 -67 154 -67c99 0 148 27 148 80c0 55 -51 82 -156 82c-47 0 -90 -7 -131 -23h-278l71 401h745v-171h-564l-14 -78c65 20 137 28 217 28c266 0 403 -86 403 -243c0 -168 -152 -261 -449 -261c-296 0 -435 69 -442 252z" />
    <glyph glyph-name="six" unicode="6" 
d="M322 424c67 30 138 43 217 43c252 0 384 -84 384 -238c0 -164 -136 -249 -408 -249c-322 0 -470 108 -470 372c0 255 147 375 449 375c263 0 402 -74 420 -225h-285c-9 34 -51 48 -126 48c-107 0 -167 -40 -181 -126zM348 229c0 -49 48 -71 142 -71s141 23 141 71
c0 49 -47 72 -141 72s-142 -22 -142 -72z" />
    <glyph glyph-name="seven" unicode="7" 
d="M146 0c5 67 20 122 48 165c49 78 118 132 193 189c90 68 167 117 211 177h-553v177h888c-1 -79 -17 -146 -52 -208c-38 -68 -101 -120 -171 -180c-51 -44 -105 -87 -144 -145c-35 -53 -52 -109 -54 -175h-366z" />
    <glyph glyph-name="eight" unicode="8" 
d="M127 376c-52 24 -76 65 -76 131c0 151 141 218 429 218s429 -67 429 -218c0 -66 -24 -107 -76 -131c57 -29 84 -78 84 -150c0 -171 -141 -243 -437 -243s-437 72 -437 243c0 72 27 121 84 150zM341 498c0 -39 46 -52 139 -52s139 13 139 52s-46 51 -139 51
s-139 -12 -139 -51zM332 223c0 -45 48 -59 148 -59s148 14 148 59s-48 60 -148 60s-148 -15 -148 -60z" />
    <glyph glyph-name="nine" unicode="9" 
d="M46 205h284c9 -34 52 -47 127 -47c107 0 166 39 180 125c-67 -29 -138 -42 -217 -42c-252 0 -383 83 -383 237c0 164 135 249 407 249c322 0 471 -108 471 -372c0 -255 -147 -375 -449 -375c-263 0 -402 74 -420 225zM328 478c0 -50 48 -71 142 -71s141 22 141 71
c0 48 -47 71 -141 71s-142 -22 -142 -71z" />
    <glyph glyph-name="colon" unicode=":" horiz-adv-x="442" 
d="M89 0v232h264v-232h-264zM89 330v232h264v-232h-264z" />
    <glyph glyph-name="semicolon" unicode=";" horiz-adv-x="442" 
d="M89 0v232h264v-154c0 -68 -8 -114 -61 -154c-43 -35 -100 -61 -169 -81l-23 93c44 14 65 32 66 64h-77zM89 331v232h264v-232h-264z" />
    <glyph glyph-name="less" unicode="&#x3c;" horiz-adv-x="837" 
d="M707 460l-393 -161l393 -161v-147l-577 240v137l577 240v-148z" />
    <glyph glyph-name="equal" unicode="=" horiz-adv-x="837" 
d="M712 482v-134h-587v134h587zM712 251v-134h-587v134h587z" />
    <glyph glyph-name="greater" unicode="&#x3e;" horiz-adv-x="837" 
d="M707 368v-137l-577 -240v147l393 161l-393 161v148z" />
    <glyph glyph-name="question" unicode="?" horiz-adv-x="856" 
d="M288 282v12c0 67 31 104 105 134c46 19 84 25 105 38c25 16 36 33 36 58c0 38 -37 59 -104 59c-87 0 -132 -38 -132 -113v-5h-283c0 198 127 281 404 281c275 0 409 -68 409 -219c0 -90 -44 -132 -148 -173c-65 -26 -113 -33 -129 -72h-263zM288 0v232h264v-232h-264z
" />
    <glyph glyph-name="at" unicode="@" horiz-adv-x="1004" 
d="M552 242l23 95c-5 45 -29 71 -65 71c-62 0 -118 -89 -118 -192c0 -49 23 -75 58 -75c46 0 87 37 102 101zM609 447l24 40h118l-76 -308c-1 -5 -2 -10 -2 -15c0 -15 8 -24 23 -24c78 0 164 102 164 232c0 152 -121 259 -313 259c-94 0 -176 -24 -241 -70
c-100 -70 -158 -180 -158 -303c0 -192 140 -316 361 -316c106 0 202 31 287 92l57 -79c-107 -79 -221 -117 -355 -117c-125 0 -236 37 -319 103c-96 78 -145 182 -145 314c0 115 37 219 107 302c98 116 240 180 404 180c255 0 425 -151 425 -363c0 -112 -46 -209 -129 -273
c-48 -37 -104 -55 -161 -55c-71 0 -109 24 -115 75c-38 -51 -80 -74 -141 -74c-112 0 -169 57 -169 172c0 162 107 282 245 282c49 0 86 -19 109 -54z" />
    <glyph glyph-name="A" unicode="A" horiz-adv-x="907" 
d="M-29 0l314 726h357l293 -726h-304l-24 72h-309l-26 -72h-301zM365 250h179l-87 256z" />
    <glyph glyph-name="B" unicode="B" horiz-adv-x="1012" 
d="M664 726c189 0 278 -42 278 -181c0 -71 -33 -126 -96 -159c83 -27 126 -88 126 -179c0 -137 -90 -207 -271 -207h-621v726h584zM361 556v-103h189c67 0 98 5 98 52c0 49 -32 51 -98 51h-189zM361 181h199c74 0 110 5 110 59s-34 61 -110 61h-199v-120z" />
    <glyph glyph-name="C" unicode="C" horiz-adv-x="1034" 
d="M685 421c-9 90 -65 138 -159 138c-121 0 -186 -69 -186 -196s65 -195 186 -195c86 0 141 39 158 118h324c-29 -199 -193 -305 -482 -305c-324 0 -488 131 -488 382s164 382 488 382c304 0 470 -117 480 -324h-321z" />
    <glyph glyph-name="D" unicode="D" horiz-adv-x="1047" 
d="M80 727h465c304 0 462 -129 462 -364s-157 -363 -462 -363h-465v727zM361 547v-354h140c139 0 204 46 204 177c0 129 -64 177 -204 177h-140z" />
    <glyph glyph-name="E" unicode="E" horiz-adv-x="883" 
d="M79 0v726h769v-178h-488v-87h395v-178h-395v-96h512v-187h-793z" />
    <glyph glyph-name="F" unicode="F" horiz-adv-x="814" 
d="M79 0v726h725v-178h-443v-99h361v-178h-361v-271h-282z" />
    <glyph glyph-name="G" unicode="G" horiz-adv-x="1057" 
d="M844 65c-70 -61 -173 -84 -318 -84c-324 0 -488 131 -488 382s164 382 488 382c280 0 444 -103 465 -261h-308c-29 57 -78 87 -149 87c-117 0 -194 -80 -194 -208c0 -129 73 -203 198 -203c97 0 161 38 174 95h-117v157h405v-412h-126z" />
    <glyph glyph-name="H" unicode="H" horiz-adv-x="1043" 
d="M80 0v726h281v-251h321v251h281v-726h-281v294h-321v-294h-281z" />
    <glyph glyph-name="I" unicode="I" horiz-adv-x="439" 
d="M79 0v726h282v-726h-282z" />
    <glyph glyph-name="J" unicode="J" horiz-adv-x="814" 
d="M17 311h282v-10c0 -87 26 -129 86 -129c78 0 89 49 89 152v402h282v-374c0 -117 -1 -201 -50 -266c-53 -70 -155 -106 -305 -106c-269 0 -385 82 -385 298c0 10 0 21 1 33z" />
    <glyph glyph-name="K" unicode="K" horiz-adv-x="982" 
d="M80 0v726h281v-251l258 251h380l-302 -262l332 -464h-349l-196 295l-123 -100v-195h-281z" />
    <glyph glyph-name="L" unicode="L" horiz-adv-x="813" 
d="M79 0v726h282v-527h443v-199h-725z" />
    <glyph glyph-name="M" unicode="M" horiz-adv-x="1242" 
d="M79 0v726h417l123 -442l133 442h411v-726h-261v567l-172 -567h-220l-170 567v-567h-261z" />
    <glyph glyph-name="N" unicode="N" horiz-adv-x="1044" 
d="M79 0v726h332l281 -418v418h272v-726h-315l-305 425v-425h-265z" />
    <glyph glyph-name="O" unicode="O" horiz-adv-x="1052" 
d="M38 363c0 251 164 382 488 382s488 -131 488 -382s-164 -382 -488 -382s-488 131 -488 382zM340 363c0 -127 65 -195 186 -195s186 68 186 195s-65 196 -186 196s-186 -69 -186 -196z" />
    <glyph glyph-name="P" unicode="P" 
d="M80 0v726h543c208 0 321 -88 321 -235c0 -148 -113 -236 -321 -236h-262v-255h-281zM515 570h-154v-157h154c84 0 122 16 122 79c0 62 -38 78 -122 78z" />
    <glyph glyph-name="Q" unicode="Q" horiz-adv-x="1052" 
d="M705 -4c-48 -11 -106 -16 -171 -16c-331 0 -496 128 -496 382c0 252 164 382 488 382s488 -130 488 -382c0 -128 -41 -223 -127 -287l87 -89l-132 -129zM537 167l-47 49l131 129l75 -76c12 27 16 57 16 93c0 127 -65 196 -186 196s-186 -69 -186 -196
c0 -125 66 -195 183 -195h14z" />
    <glyph glyph-name="R" unicode="R" horiz-adv-x="996" 
d="M365 412h164c77 0 117 14 117 67c0 55 -42 63 -124 63h-157v-130zM633 726c114 0 194 -9 240 -37c54 -33 83 -88 83 -158c0 -86 -44 -155 -119 -184c77 -32 86 -72 90 -155c5 -104 5 -164 39 -181v-11h-312c-22 35 -12 88 -19 149c-6 54 -33 72 -102 72h-168v-221h-285
v726h553z" />
    <glyph glyph-name="S" unicode="S" horiz-adv-x="983" 
d="M34 221h340c5 -38 50 -61 127 -61c75 0 114 17 114 52c0 31 -34 50 -101 58l-210 26c-174 21 -262 94 -262 216c0 166 134 233 418 233c295 0 444 -68 456 -230h-327c-7 45 -54 69 -141 69c-67 0 -102 -20 -102 -48c0 -32 35 -41 108 -51l256 -37
c160 -23 239 -92 239 -212c0 -182 -160 -258 -493 -258c-276 0 -420 90 -422 243z" />
    <glyph glyph-name="T" unicode="T" horiz-adv-x="811" 
d="M264 0v542h-262v184h807v-184h-263v-542h-282z" />
    <glyph glyph-name="U" unicode="U" horiz-adv-x="1017" 
d="M361 726v-355c0 -137 32 -194 148 -194s147 57 147 194v355h281v-381c0 -254 -134 -365 -428 -365c-293 0 -429 113 -429 365v381h281z" />
    <glyph glyph-name="V" unicode="V" horiz-adv-x="859" 
d="M276 0l-320 726h317l154 -486l162 486h314l-333 -726h-294z" />
    <glyph glyph-name="W" unicode="W" horiz-adv-x="1232" 
d="M188 0l-248 726h302l126 -507l134 507h233l135 -507l119 507h303l-249 -726h-305l-123 470l-125 -470h-302z" />
    <glyph glyph-name="X" unicode="X" horiz-adv-x="907" 
d="M-25 0l323 383l-277 343h340l99 -157l108 157h335l-281 -343l317 -383h-351l-130 195l-133 -195h-350z" />
    <glyph glyph-name="Y" unicode="Y" horiz-adv-x="837" 
d="M275 0v205l-318 521h330l131 -299l139 299h323l-323 -521v-205h-282z" />
    <glyph glyph-name="Z" unicode="Z" horiz-adv-x="857" 
d="M25 0v161l425 383h-400v182h782v-165l-423 -370h409v-191h-793z" />
    <glyph glyph-name="bracketleft" unicode="[" horiz-adv-x="516" 
d="M62 -185v916h432v-193h-176v-530h176v-193h-432z" />
    <glyph glyph-name="backslash" unicode="\" horiz-adv-x="479" 
d="M481 -93h-127l-390 838h124z" />
    <glyph glyph-name="bracketright" unicode="]" horiz-adv-x="516" 
d="M454 731v-916h-432v193h176v530h-176v193h432z" />
    <glyph glyph-name="asciicircum" unicode="^" horiz-adv-x="1005" 
d="M584 718l217 -278h-148l-151 152l-152 -152h-148l217 278h165z" />
    <glyph glyph-name="underscore" unicode="_" horiz-adv-x="502" 
d="M502 -99v-138h-502v138h502z" />
    <glyph glyph-name="grave" unicode="`" horiz-adv-x="503" 
d="M140 638l-149 153h296l92 -153h-239z" />
    <glyph glyph-name="a" unicode="a" horiz-adv-x="895" 
d="M579 77c-68 -71 -156 -95 -283 -95c-184 0 -276 61 -276 184c0 42 11 77 30 101c52 65 138 71 259 79c176 12 258 0 258 46c0 29 -39 51 -112 51c-81 0 -122 -12 -129 -56h-259c11 144 133 190 386 190c149 0 249 -21 301 -61c64 -50 77 -113 77 -212v-217
c0 -37 5 -60 25 -75v-12h-261c-10 23 -15 49 -16 77zM578 262c-51 -25 -110 -23 -177 -29s-96 -16 -96 -51s33 -56 92 -56c113 0 182 50 182 122c0 5 0 9 -1 14z" />
    <glyph glyph-name="b" unicode="b" horiz-adv-x="872" 
d="M68 0v732h251v-215c62 41 129 60 209 60c192 0 313 -115 313 -295c0 -179 -121 -296 -309 -296c-89 0 -162 23 -223 69l-2 -55h-239zM319 282c0 -77 53 -125 129 -125c77 0 129 48 129 125c0 76 -52 124 -129 124c-76 0 -129 -48 -129 -124z" />
    <glyph glyph-name="c" unicode="c" horiz-adv-x="867" 
d="M835 247c-18 -177 -153 -266 -402 -266c-261 0 -403 112 -403 300c0 187 142 300 403 300c240 0 374 -83 397 -243h-269c-20 52 -61 78 -122 78c-89 0 -144 -51 -144 -134c0 -82 55 -133 138 -133c70 0 122 38 134 98h268z" />
    <glyph glyph-name="d" unicode="d" horiz-adv-x="872" 
d="M804 732v-732h-239l-2 55c-61 -46 -134 -69 -223 -69c-188 0 -309 117 -309 296c0 180 121 295 313 295c80 0 147 -19 209 -60v215h251zM553 282c0 76 -53 124 -129 124c-77 0 -129 -48 -129 -124c0 -77 52 -125 129 -125c76 0 129 48 129 125z" />
    <glyph glyph-name="e" unicode="e" horiz-adv-x="871" 
d="M838 171c-37 -123 -175 -190 -408 -190c-259 0 -400 112 -400 300s141 300 400 300c272 0 413 -120 413 -348v-10h-544c0 -60 52 -96 146 -96c62 0 103 16 120 44h273zM286 343h299c-7 62 -58 98 -141 98c-89 0 -145 -34 -158 -98z" />
    <glyph glyph-name="f" unicode="f" horiz-adv-x="468" 
d="M98 0v402l-98 -2v158h99c-1 10 -1 20 -1 29c0 118 55 159 201 159c37 0 86 -2 150 -5v-133h-54c-36 0 -50 -11 -50 -43v-7h104v-158h-100v-400h-251z" />
    <glyph glyph-name="g" unicode="g" horiz-adv-x="872" 
d="M804 125c0 -74 -2 -128 -22 -162c-65 -108 -181 -150 -371 -150c-222 0 -340 56 -364 187h337c8 -26 28 -36 64 -36c77 0 106 31 106 105c0 10 0 19 -1 31c-59 -44 -131 -63 -221 -63c-185 0 -301 108 -301 270c0 161 117 270 302 270c93 0 169 -21 230 -68l2 54h239
v-438zM295 302c0 -65 51 -106 129 -106s129 41 129 106c0 64 -52 106 -129 106s-129 -42 -129 -106z" />
    <glyph glyph-name="h" unicode="h" horiz-adv-x="844" 
d="M68 0v732h251v-227c68 47 139 69 223 69c168 0 239 -84 239 -262v-312h-251v264c0 79 -21 111 -92 111c-73 0 -119 -37 -119 -99v-276h-251z" />
    <glyph glyph-name="i" unicode="i" horiz-adv-x="406" 
d="M81 609v143h251v-143h-251zM81 0v563h251v-563h-251z" />
    <glyph glyph-name="j" unicode="j" horiz-adv-x="401" 
d="M82 563h253v-500c0 -100 -11 -156 -48 -192s-99 -50 -187 -50c-41 0 -83 4 -125 12v180h37c69 0 70 29 70 118v432zM82 610v142h253v-142h-253z" />
    <glyph glyph-name="k" unicode="k" horiz-adv-x="835" 
d="M68 0v732h251v-346l181 177h337l-222 -195l248 -368h-302l-134 219l-108 -92v-127h-251z" />
    <glyph glyph-name="l" unicode="l" horiz-adv-x="406" 
d="M75 0v732h257v-732h-257z" />
    <glyph glyph-name="m" unicode="m" horiz-adv-x="1270" 
d="M66 0v562h249v-58c67 47 135 69 216 69c90 0 149 -30 193 -101c74 69 152 101 252 101c163 0 230 -84 230 -262v-311h-248v264c0 77 -19 110 -87 110c-70 0 -112 -37 -112 -99v-275h-245v264c0 77 -19 110 -86 110c-70 0 -113 -37 -113 -99v-275h-249z" />
    <glyph glyph-name="n" unicode="n" horiz-adv-x="842" 
d="M66 0v562h251v-58c68 47 139 69 223 69c168 0 238 -84 238 -262v-311h-251v264c0 78 -20 110 -91 110c-73 0 -119 -37 -119 -99v-275h-251z" />
    <glyph glyph-name="o" unicode="o" horiz-adv-x="851" 
d="M30 281c0 188 140 300 396 300s395 -112 395 -300s-139 -300 -395 -300s-396 112 -396 300zM295 281c0 -78 52 -127 130 -127s130 49 130 127s-52 127 -130 127s-130 -49 -130 -127z" />
    <glyph glyph-name="p" unicode="p" horiz-adv-x="872" 
d="M68 -182v745h239l2 -54c61 46 134 68 223 68c188 0 309 -117 309 -296s-121 -295 -313 -295c-80 0 -147 19 -209 60v-228h-251zM319 281c0 -76 53 -124 129 -124c77 0 129 48 129 124c0 77 -52 125 -129 125c-76 0 -129 -48 -129 -125z" />
    <glyph glyph-name="q" unicode="q" horiz-adv-x="872" 
d="M553 46c-62 -41 -129 -60 -209 -60c-192 0 -313 116 -313 295s121 296 309 296c89 0 162 -22 223 -68l2 54h239v-745h-251v228zM295 281c0 -76 52 -124 129 -124c76 0 129 48 129 124c0 77 -53 125 -129 125c-77 0 -129 -48 -129 -125z" />
    <glyph glyph-name="r" unicode="r" horiz-adv-x="689" 
d="M70 0v562h249l3 -43c36 36 87 57 156 57c131 0 187 -69 187 -219v-49h-222v4c0 56 -19 85 -59 85c-46 0 -59 -36 -59 -107v-290h-255z" />
    <glyph glyph-name="s" unicode="s" horiz-adv-x="842" 
d="M25 179h307c4 -41 35 -55 99 -55c57 0 87 13 87 38c0 39 -47 38 -149 48c-103 10 -186 18 -251 47c-50 22 -79 71 -79 137c0 133 121 187 374 187c241 0 363 -57 371 -188h-290c-3 40 -36 54 -102 54c-58 0 -87 -12 -87 -39c0 -38 41 -36 130 -44
c135 -12 220 -19 255 -31c83 -29 118 -67 118 -148c0 -149 -128 -204 -406 -204c-249 0 -371 57 -377 198z" />
    <glyph glyph-name="t" unicode="t" horiz-adv-x="467" 
d="M446 1c-42 -7 -83 -11 -124 -11c-60 0 -110 7 -150 23c-67 27 -77 77 -77 158v220h-89v158h89v184h254v-184h90v-158h-90v-116c0 -88 0 -119 61 -119h36v-155z" />
    <glyph glyph-name="u" unicode="u" horiz-adv-x="842" 
d="M525 58c-68 -47 -139 -69 -223 -69c-168 0 -238 84 -238 262v311h251v-264c0 -78 20 -110 91 -110c73 0 119 37 119 99v275h251v-562h-251v58z" />
    <glyph glyph-name="v" unicode="v" horiz-adv-x="768" 
d="M241 0l-262 562h289l90 -251c9 -25 17 -54 23 -88c6 28 14 55 24 83l90 256h286l-262 -562h-278z" />
    <glyph glyph-name="w" unicode="w" horiz-adv-x="1176" 
d="M184 0l-191 562h272l67 -241c8 -30 16 -70 24 -120c8 31 21 64 36 103l100 258h187l103 -256c8 -20 18 -50 30 -90c5 32 15 67 26 105l72 241h273l-195 -562h-288l-93 229c-10 24 -18 50 -24 77c-6 -28 -13 -52 -22 -73l-95 -233h-282z" />
    <glyph glyph-name="x" unicode="x" horiz-adv-x="775" 
d="M-51 0l261 295l-236 267h315l68 -105c11 -17 21 -34 26 -50c6 16 15 32 27 49l76 106h308l-238 -266l259 -296h-323l-80 114c-11 16 -22 32 -28 53c-6 -16 -13 -32 -24 -47l-87 -120h-324z" />
    <glyph glyph-name="y" unicode="y" horiz-adv-x="726" 
d="M60 -8h56c69 0 98 19 114 86l-259 485h274l92 -200c14 -30 25 -59 32 -90c6 25 15 50 26 76l91 214h267l-238 -488c-50 -102 -88 -166 -115 -193c-47 -45 -94 -54 -165 -54h-175v164z" />
    <glyph glyph-name="z" unicode="z" horiz-adv-x="710" 
d="M12 0v148l310 243h-276v171h633v-147l-303 -237h296v-178h-660z" />
    <glyph glyph-name="braceleft" unicode="{" horiz-adv-x="502" 
d="M444 585c-8 0 -15 1 -21 1c-61 0 -73 -18 -73 -78v-117c0 -82 -20 -116 -106 -131c86 -16 106 -49 106 -130v-118c0 -59 12 -77 72 -77c7 0 14 1 22 1v-139h-39c-73 0 -126 3 -163 22c-48 24 -53 65 -53 132v127c0 81 -26 114 -101 114c-5 0 -11 -1 -17 -1v138
c6 0 12 -1 17 -1c75 0 101 33 101 114v127c0 67 5 109 53 133c38 19 91 22 163 22h39v-139z" />
    <glyph glyph-name="bar" unicode="|" horiz-adv-x="502" 
d="M320 767v-1004h-137v1004h137z" />
    <glyph glyph-name="braceright" unicode="}" horiz-adv-x="502" 
d="M314 569v-127c0 -81 26 -114 101 -114c5 0 11 1 17 1v-138c-6 0 -12 1 -17 1c-75 0 -101 -33 -101 -114v-127c0 -67 -6 -109 -54 -133c-36 -18 -87 -21 -155 -21h-46v138h21c61 0 73 17 73 77v118c0 81 20 114 106 130c-86 15 -106 49 -106 130v118c0 60 -12 78 -73 78
c-6 0 -13 -1 -21 -1v139h39c73 0 125 -3 162 -22c48 -24 54 -66 54 -133z" />
    <glyph glyph-name="asciitilde" unicode="~" horiz-adv-x="837" 
d="M751 266c-65 -43 -122 -65 -182 -65c-48 0 -91 14 -131 28c-50 17 -101 34 -163 34c-58 0 -117 -27 -188 -78v147c72 45 134 71 200 71c46 0 90 -12 137 -27c49 -16 94 -37 147 -37c58 0 115 25 180 74v-147z" />
    <glyph glyph-name="afii10051" unicode="&#x402;" horiz-adv-x="1147" 
d="M618 -1v153c47 -7 95 -15 144 -15c44 0 73 29 73 64c0 74 -76 85 -142 85c-60 0 -115 -14 -147 -25v-262h-282v542h-262v184h833v-184h-289v-118c62 13 135 29 218 29c171 0 353 -45 353 -234c0 -135 -136 -238 -282 -238c-96 0 -190 12 -217 19z" />
    <glyph glyph-name="afii10052" unicode="&#x403;" horiz-adv-x="813" 
d="M79 726h725v-181h-443v-545h-282v726zM319 800l92 153h296l-149 -153h-239z" />
    <glyph glyph-name="quotesinglbase" unicode="&#x201a;" horiz-adv-x="419" 
d="M78 0v232h263v-154c0 -68 -7 -114 -60 -155c-43 -34 -100 -60 -169 -80l-23 92c44 15 64 33 65 65h-76z" />
    <glyph glyph-name="afii10100" unicode="&#x453;" horiz-adv-x="665" 
d="M67 0v562h588v-178h-337v-384h-251zM265 614l79 129h269l-167 -129h-181z" />
    <glyph glyph-name="quotedblbase" unicode="&#x201e;" horiz-adv-x="761" 
d="M418 0v232h263v-154c0 -68 -8 -114 -60 -155c-43 -34 -100 -60 -170 -80l-22 92c43 15 64 33 65 65h-76zM75 0v232h264v-154c0 -68 -8 -114 -60 -155c-44 -34 -100 -60 -169 -80l-22 92c43 15 63 33 64 65h-77z" />
    <glyph glyph-name="ellipsis" unicode="&#x2026;" horiz-adv-x="1005" 
d="M-2 0v233h263v-233h-263zM332 0v233h264v-233h-264zM668 0v233h263v-233h-263z" />
    <glyph glyph-name="dagger" unicode="&#x2020;" horiz-adv-x="954" 
d="M608 -154h-261v475h-249v230h249v174h261v-174h249v-230h-249v-475z" />
    <glyph glyph-name="daggerdbl" unicode="&#x2021;" horiz-adv-x="961" 
d="M185 -15l-84 181c42 33 62 67 62 109c0 9 -1 18 -3 28h-59v120h49c-3 19 -4 39 -4 56c0 164 121 244 367 244c262 0 388 -77 389 -252h-292c-3 45 -33 71 -84 71c-52 0 -80 -28 -80 -80c0 -11 1 -23 2 -39h185v-120h-189c0 -27 -13 -54 -38 -85c29 5 54 7 76 7
c71 0 142 -24 210 -24c61 0 108 16 160 58l58 -197c-67 -54 -141 -78 -227 -78c-41 0 -83 6 -125 13c-89 14 -162 39 -218 39c-47 0 -98 -17 -155 -51z" />
    <glyph glyph-name="perthousand" unicode="&#x2030;" horiz-adv-x="1679" 
d="M37 532c0 122 89 194 250 194s249 -72 249 -194c0 -123 -88 -195 -249 -195s-250 72 -250 195zM286 627c-57 0 -94 -37 -94 -96s36 -95 94 -95c59 0 96 36 96 95s-37 96 -96 96zM214 -19l593 745h116l-593 -745h-116zM601 176c0 123 89 195 250 195s249 -72 249 -195
c0 -122 -88 -195 -249 -195s-250 73 -250 195zM850 272c-57 0 -94 -37 -94 -96s36 -95 94 -95s96 36 96 95s-38 96 -96 96zM1143 176c0 123 88 195 249 195s250 -72 250 -195c0 -122 -89 -195 -250 -195s-249 73 -249 195zM1392 272c-58 0 -95 -37 -95 -96s36 -95 95 -95
c58 0 94 36 94 95s-36 96 -94 96z" />
    <glyph glyph-name="afii10058" unicode="&#x409;" horiz-adv-x="1572" 
d="M692 0v545h-245l2 -197c0 -138 -30 -235 -83 -293c-46 -48 -104 -68 -200 -68c-56 0 -110 5 -166 15v169c17 -5 40 -7 70 -7c94 0 96 72 96 189v373h807v-270h277c201 0 306 -82 306 -226c0 -143 -110 -230 -312 -230h-552zM973 156h164c78 0 113 14 113 72
c0 59 -35 73 -113 73h-164v-145z" />
    <glyph glyph-name="guilsinglleft" unicode="&#x2039;" horiz-adv-x="384" 
d="M67 348l248 195v-204l-80 -58l80 -58v-204l-248 195v134z" />
    <glyph glyph-name="afii10059" unicode="&#x40a;" horiz-adv-x="1562" 
d="M80 726h281v-251h321v251h281v-270h277c201 0 306 -82 306 -226c0 -143 -110 -230 -312 -230h-552v294h-321v-294h-281v726zM1127 156c78 0 113 14 113 72c0 59 -35 73 -113 73h-164v-145h164z" />
    <glyph glyph-name="afii10061" unicode="&#x40c;" horiz-adv-x="982" 
d="M80 0v726h281v-251l258 251h380l-302 -262l332 -464h-349l-196 295l-123 -100v-195h-281zM381 800l92 153h296l-149 -153h-239z" />
    <glyph glyph-name="afii10060" unicode="&#x40b;" horiz-adv-x="1162" 
d="M264 0v542h-262v184h833v-184h-289v-118c59 9 135 29 218 29c171 0 351 -45 351 -234v-219h-281v164c0 104 -64 123 -141 123c-60 0 -115 -14 -147 -25v-262h-282z" />
    <glyph glyph-name="afii10145" unicode="&#x40f;" horiz-adv-x="1061" 
d="M80 725h281v-534h321v534h281v-725h-307v-142h-268v142h-308v725z" />
    <glyph glyph-name="afii10099" unicode="&#x452;" horiz-adv-x="844" 
d="M319 0h-251v562h-89v141h89v65h251v-65h153v-141h-153v-94c68 47 139 69 223 69c168 0 239 -84 239 -262v-233c0 -135 -67 -221 -235 -221c-41 0 -83 4 -125 12v180h37c69 0 70 29 72 117v97c0 79 -21 111 -92 111c-73 0 -119 -37 -119 -99v-239z" />
    <glyph glyph-name="quoteleft" unicode="&#x2018;" horiz-adv-x="419" 
d="M341 588v-233h-264v154c0 68 8 115 61 156c43 34 100 60 169 80l23 -92c-44 -15 -65 -33 -66 -65h77z" />
    <glyph glyph-name="quoteright" unicode="&#x2019;" horiz-adv-x="419" 
d="M78 494v232h263v-154c0 -68 -7 -114 -60 -155c-43 -34 -100 -60 -169 -80l-23 91c44 15 64 34 65 66h-76z" />
    <glyph glyph-name="quotedblleft" unicode="&#x201c;" horiz-adv-x="761" 
d="M341 588v-233h-264v154c0 68 9 115 61 156c43 34 100 60 170 80l22 -92c-43 -15 -65 -33 -66 -65h77zM683 588v-233h-263v154c0 68 7 115 59 156c44 34 101 60 170 80l22 -92c-43 -15 -63 -33 -64 -65h76z" />
    <glyph glyph-name="quotedblright" unicode="&#x201d;" horiz-adv-x="761" 
d="M418 494v232h263v-154c0 -68 -8 -114 -60 -155c-43 -34 -100 -60 -170 -80l-22 91c43 15 64 34 65 66h-76zM75 494v232h264v-154c0 -68 -8 -114 -60 -155c-44 -34 -100 -60 -169 -80l-22 91c43 15 63 34 64 66h-77z" />
    <glyph glyph-name="bullet" unicode="&#x2022;" horiz-adv-x="592" 
d="M150 374c0 80 66 145 146 145c79 0 145 -65 145 -145c0 -79 -66 -146 -146 -146s-145 66 -145 146z" />
    <glyph glyph-name="endash" unicode="&#x2013;" horiz-adv-x="502" 
d="M0 206v162h502v-162h-502z" />
    <glyph glyph-name="emdash" unicode="&#x2014;" horiz-adv-x="1004" 
d="M0 206v162h1004v-162h-1004z" />
    <glyph glyph-name="trademark" unicode="&#x2122;" horiz-adv-x="837" 
d="M339 721v-75h-80v-200h-99v200h-80v75h259zM513 721l48 -131l48 131h126v-275h-90v180l-67 -180h-34l-68 180v-180h-89v275h126z" />
    <glyph glyph-name="afii10106" unicode="&#x459;" horiz-adv-x="1296" 
d="M544 0v386h-173v-174c0 -71 -29 -126 -62 -161c-38 -41 -97 -61 -175 -61c-62 0 -93 1 -134 13v147c17 -3 34 -4 49 -4c56 0 69 35 69 175v241h678v-194h176c193 0 277 -58 277 -177c0 -137 -90 -191 -277 -191h-428zM796 234v-94h131c49 0 63 15 63 48
c0 29 -15 46 -65 46h-129z" />
    <glyph glyph-name="guilsinglright" unicode="&#x203a;" horiz-adv-x="384" 
d="M317 214l-248 -195v204l80 58l-80 58v204l248 -195v-134z" />
    <glyph glyph-name="afii10107" unicode="&#x45a;" horiz-adv-x="1278" 
d="M527 0v192h-210v-192h-251v562h251v-192h210v192h251v-194h176c193 0 277 -58 277 -177c0 -137 -90 -191 -277 -191h-427zM778 234v-94h131c49 0 63 15 63 48c0 29 -15 46 -65 46h-129z" />
    <glyph glyph-name="afii10109" unicode="&#x45c;" horiz-adv-x="835" 
d="M65 1v560h251v-179l184 179h335l-221 -194l247 -366h-300l-134 218l-111 -91v-127h-251zM325 614l79 129h269l-167 -129h-181z" />
    <glyph glyph-name="afii10108" unicode="&#x45b;" horiz-adv-x="844" 
d="M319 562v-94c68 47 139 69 223 69c168 0 239 -84 239 -262v-275h-251v227c0 79 -21 111 -92 111c-73 0 -119 -37 -119 -99v-239h-251v562h-89v141h89v65h251v-65h153v-141h-153z" />
    <glyph glyph-name="afii10193" unicode="&#x45f;" horiz-adv-x="862" 
d="M66 0v563h251v-384h209v384h251v-563h-239v-145h-231v145h-241z" />
    <glyph glyph-name="afii10062" unicode="&#x40e;" horiz-adv-x="1044" 
d="M285 953h161c1 -47 34 -71 94 -73c61 2 94 26 95 73h161c0 -104 -99 -166 -255 -167c-157 1 -256 63 -256 167zM246 0v173c85 -28 136 -14 160 45l-344 508h330l141 -319l129 319h323l-300 -526c-58 -101 -81 -126 -104 -151c-45 -50 -117 -68 -185 -68
c-53 0 -98 8 -150 19z" />
    <glyph glyph-name="afii10110" unicode="&#x45e;" horiz-adv-x="726" 
d="M60 -8h56c69 0 98 19 114 86l-259 485h274l92 -200c14 -30 25 -59 32 -90c6 25 15 50 26 76l91 214h267l-238 -488c-50 -102 -88 -166 -115 -193c-47 -45 -94 -54 -165 -54h-175v164zM166 789h128c-2 -31 20 -62 73 -62c50 0 72 31 71 62h133c0 -49 -20 -88 -61 -115
c-38 -25 -86 -38 -143 -38c-63 0 -111 11 -144 34c-38 26 -57 66 -57 119z" />
    <glyph glyph-name="afii10057" unicode="&#x408;" horiz-adv-x="814" 
d="M17 311h282v-10c0 -87 26 -129 86 -129c78 0 89 49 89 152v402h282v-374c0 -117 -1 -201 -50 -266c-53 -70 -155 -106 -305 -106c-269 0 -385 82 -385 298c0 10 0 21 1 33z" />
    <glyph glyph-name="currency" unicode="&#xa4;" horiz-adv-x="610" 
d="M189 615c36 23 73 33 117 33c43 0 81 -10 116 -33l97 97l65 -66l-96 -99c21 -35 32 -71 32 -113c0 -41 -11 -78 -32 -113l96 -98l-65 -67l-97 98c-35 -23 -73 -34 -116 -34c-44 0 -81 11 -117 34l-97 -98l-65 67l96 98c-22 35 -32 72 -32 114s11 78 32 112l-96 99l65 66z
M426 434c0 64 -56 120 -120 120c-65 0 -121 -56 -121 -120s55 -120 121 -120c65 0 120 56 120 120z" />
    <glyph glyph-name="afii10050" unicode="&#x490;" horiz-adv-x="813" 
d="M79 726h444v130h281v-311h-443v-545h-282v726z" />
    <glyph glyph-name="brokenbar" unicode="&#xa6;" horiz-adv-x="502" 
d="M320 702v-372h-137v372h137zM320 200v-372h-137v372h137z" />
    <glyph glyph-name="section" unicode="&#xa7;" horiz-adv-x="954" 
d="M68 65h270c7 -45 52 -67 133 -67c85 0 128 11 128 37c0 22 -25 25 -69 34l-200 39c-85 17 -150 32 -193 49c-76 30 -118 92 -118 174c0 76 35 126 101 148c-19 24 -28 49 -28 81c0 125 120 184 360 184c258 0 391 -69 400 -208h-269c-7 48 -46 59 -130 59
c-67 0 -99 -8 -99 -35c0 -18 19 -24 59 -31l237 -44c62 -12 119 -22 170 -39c75 -26 115 -83 115 -162c0 -77 -31 -125 -95 -145c29 -25 42 -56 42 -97c0 -137 -132 -197 -404 -197c-257 0 -396 77 -410 220zM692 220c5 19 9 32 9 39c0 28 -18 40 -61 48l-325 63
c-11 2 -30 4 -53 13c-7 -15 -10 -27 -10 -39c0 -29 19 -39 63 -48l325 -63c12 -2 29 -5 52 -13z" />
    <glyph glyph-name="afii10023" unicode="&#x401;" horiz-adv-x="883" 
d="M79 0v725h769v-178h-488v-86h395v-179h-395v-95h512v-187h-793zM180 805v142h200v-142h-200zM540 805v142h200v-142h-200z" />
    <glyph glyph-name="copyright" unicode="&#xa9;" horiz-adv-x="837" 
d="M418 733c100 0 193 -37 263 -108c69 -68 107 -162 107 -261c0 -102 -37 -191 -107 -258c-72 -72 -167 -111 -263 -111c-97 0 -188 38 -259 110c-71 70 -109 162 -109 259s38 191 110 263c67 69 157 106 258 106zM712 365c0 79 -31 153 -85 207c-56 56 -128 86 -208 86
s-152 -29 -206 -84c-56 -57 -87 -132 -87 -209s30 -151 86 -207s129 -86 207 -86c77 0 151 30 209 87c55 54 84 125 84 206zM484 433c-2 42 -26 67 -64 67c-46 0 -76 -47 -76 -134c0 -86 27 -129 80 -129c39 0 60 24 62 71h122c-4 -98 -76 -160 -187 -160
c-128 0 -205 80 -205 214s82 219 196 219c118 0 186 -56 191 -148h-119z" />
    <glyph glyph-name="afii10053" unicode="&#x404;" horiz-adv-x="1034" 
d="M673 421c-9 90 -65 138 -159 138s-157 -44 -179 -122h249v-161h-244c22 -80 87 -108 174 -108c86 0 141 39 158 118h324c-29 -199 -193 -305 -482 -305c-324 0 -488 131 -488 382s164 382 488 382c304 0 470 -117 480 -324h-321z" />
    <glyph glyph-name="guillemotleft" unicode="&#xab;" horiz-adv-x="685" 
d="M367 348l248 195v-204l-79 -58l79 -58v-204l-248 195v134zM65 348l248 195v-204l-80 -58l80 -58v-204l-248 195v134z" />
    <glyph glyph-name="logicalnot" unicode="&#xac;" horiz-adv-x="837" 
d="M712 427v-247h-133v116h-454v131h587z" />
    <glyph glyph-name="hyphen" unicode="-" horiz-adv-x="488" 
d="M62 183v196h365v-196h-365z" />
    <glyph glyph-name="hyphen" unicode="&#xad;" horiz-adv-x="488" 
d="M62 183v196h365v-196h-365z" />
    <glyph glyph-name="registered" unicode="&#xae;" horiz-adv-x="837" 
d="M418 733c100 0 193 -37 263 -108c69 -68 107 -162 107 -261c0 -102 -37 -191 -107 -258c-72 -72 -167 -111 -263 -111c-97 0 -188 38 -259 110c-71 70 -109 162 -109 259s38 191 110 263c67 69 157 106 258 106zM712 365c0 79 -31 153 -85 207c-56 56 -128 86 -208 86
s-152 -29 -206 -84c-56 -57 -87 -132 -87 -209s30 -151 86 -207s129 -86 207 -86c77 0 151 30 209 87c55 54 84 125 84 206zM423 572c116 0 175 -42 175 -118c0 -50 -28 -89 -81 -107l88 -174h-137l-71 153h-12v-153h-126v399h164zM404 494h-19v-95h26c38 0 58 17 58 48
c0 33 -21 47 -65 47z" />
    <glyph glyph-name="afii10056" unicode="&#x407;" horiz-adv-x="439" 
d="M79 0v725h282v-725h-282zM-12 805v142h200v-142h-200zM251 805v142h200v-142h-200z" />
    <glyph glyph-name="degree" unicode="&#xb0;" horiz-adv-x="331" 
d="M166 723c87 0 158 -71 158 -159c0 -85 -71 -158 -159 -158c-87 0 -158 70 -158 158s73 159 159 159zM240 565c0 40 -34 74 -75 74c-40 0 -73 -33 -73 -74s32 -75 74 -75c41 0 74 35 74 75z" />
    <glyph glyph-name="plusminus" unicode="&#xb1;" horiz-adv-x="837" 
d="M487 619v-152h225v-134h-225v-152h-137v152h-225v134h225v152h137zM712 113v-134h-587v134h587z" />
    <glyph glyph-name="afii10055" unicode="&#x406;" horiz-adv-x="439" 
d="M79 0v726h282v-726h-282z" />
    <glyph glyph-name="afii10103" unicode="&#x456;" horiz-adv-x="406" 
d="M75 609v143h257v-143h-257zM75 0v563h257v-563h-257z" />
    <glyph glyph-name="afii10098" unicode="&#x491;" horiz-adv-x="665" 
d="M67 0v562h369v114h219v-292h-337v-384h-251z" />
    <glyph glyph-name="mu" unicode="&#xb5;" horiz-adv-x="674" 
d="M296 534l-41 -302c-1 -9 -2 -18 -2 -26c0 -44 20 -65 62 -65c52 0 80 34 90 104l42 289h205l-78 -534h-181l9 65c-24 -46 -54 -67 -92 -67c-40 0 -69 21 -86 61l-36 -266h-202l103 741h207z" />
    <glyph glyph-name="mu" unicode="&#x3bc;" horiz-adv-x="674" 
d="M296 534l-41 -302c-1 -9 -2 -18 -2 -26c0 -44 20 -65 62 -65c52 0 80 34 90 104l42 289h205l-78 -534h-181l9 65c-24 -46 -54 -67 -92 -67c-40 0 -69 21 -86 61l-36 -266h-202l103 741h207z" />
    <glyph glyph-name="paragraph" unicode="&#xb6;" horiz-adv-x="502" 
d="M497 656h-49v-656h-100v656h-68v-656h-99v385c-109 5 -176 74 -176 170c0 100 73 171 191 171h301v-70z" />
    <glyph glyph-name="periodcentered" unicode="&#xb7;" horiz-adv-x="480" 
d="M98 354c0 79 63 142 142 142s142 -63 142 -142s-63 -142 -142 -142s-142 63 -142 142z" />
    <glyph glyph-name="periodcentered" unicode="&#x2219;" horiz-adv-x="480" 
d="M98 354c0 79 63 142 142 142s142 -63 142 -142s-63 -142 -142 -142s-142 63 -142 142z" />
    <glyph glyph-name="afii10071" unicode="&#x451;" horiz-adv-x="871" 
d="M838 172c-37 -124 -175 -191 -408 -191c-259 0 -400 113 -400 300c0 188 141 301 400 301c272 0 413 -121 413 -349v-10h-544c0 -59 52 -95 146 -95c62 0 103 16 120 44h273zM286 344h299c-7 61 -58 97 -141 97c-89 0 -145 -34 -158 -97zM147 642v143h200v-143h-200z
M526 642v143h200v-143h-200z" />
    <glyph glyph-name="afii61352" unicode="&#x2116;" horiz-adv-x="1665" 
d="M60 0v726h332l281 -418v418h272v-726h-315l-305 425v-425h-265zM1017 488c0 132 104 210 296 210s296 -78 296 -210s-104 -210 -296 -210s-296 78 -296 210zM1197 488c0 -66 45 -106 115 -106c71 0 116 40 116 106s-45 106 -116 106c-70 0 -115 -40 -115 -106zM1545 191
v-134h-466v134h466z" />
    <glyph glyph-name="afii10101" unicode="&#x454;" horiz-adv-x="867" 
d="M519 340v-120h-224c9 -78 78 -93 134 -93c63 0 100 13 122 44h268c-47 -128 -174 -190 -386 -190c-261 0 -403 112 -403 300c0 187 135 300 390 300c216 0 358 -65 399 -194h-266c-19 36 -69 54 -133 54s-125 -45 -128 -101h227z" />
    <glyph glyph-name="guillemotright" unicode="&#xbb;" horiz-adv-x="685" 
d="M317 214l-247 -195v204l79 58l-79 58v204l247 -195v-134zM619 214l-247 -195v204l80 58l-80 58v204l247 -195v-134z" />
    <glyph glyph-name="afii10105" unicode="&#x458;" horiz-adv-x="401" 
d="M-25 12h37c69 0 70 29 70 118v432h253v-551c0 -65 -1 -108 -47 -147c-34 -28 -97 -44 -188 -44c-41 0 -83 4 -125 12v180zM82 609v142h253v-142h-253z" />
    <glyph glyph-name="afii10054" unicode="&#x405;" horiz-adv-x="983" 
d="M34 221h340c5 -38 50 -61 127 -61c75 0 114 17 114 52c0 31 -34 50 -101 58l-210 26c-174 21 -262 94 -262 216c0 166 134 233 418 233c295 0 444 -68 456 -230h-327c-7 45 -54 69 -141 69c-67 0 -102 -20 -102 -48c0 -32 35 -41 108 -51l256 -37
c160 -23 239 -92 239 -212c0 -182 -160 -258 -493 -258c-276 0 -420 90 -422 243z" />
    <glyph glyph-name="afii10102" unicode="&#x455;" horiz-adv-x="842" 
d="M25 179h307c4 -41 35 -55 99 -55c57 0 87 13 87 38c0 39 -47 38 -149 48c-103 10 -186 18 -251 47c-50 22 -79 71 -79 137c0 133 121 187 374 187c241 0 363 -57 371 -188h-290c-3 40 -36 54 -102 54c-58 0 -87 -12 -87 -39c0 -38 41 -36 130 -44
c135 -12 220 -19 255 -31c83 -29 118 -67 118 -148c0 -149 -128 -204 -406 -204c-249 0 -371 57 -377 198z" />
    <glyph glyph-name="afii10104" unicode="&#x457;" horiz-adv-x="406" 
d="M76 0v563h251v-563h-251zM-29 642v143h200v-143h-200zM234 642v143h200v-143h-200z" />
    <glyph glyph-name="afii10017" unicode="&#x410;" horiz-adv-x="907" 
d="M-29 0l314 726h357l293 -726h-304l-24 72h-309l-26 -72h-301zM365 250h179l-87 256z" />
    <glyph glyph-name="afii10018" unicode="&#x411;" 
d="M80 726h772v-156h-491v-114h277c201 0 306 -82 306 -226c0 -143 -110 -230 -312 -230h-552v726zM525 156c78 0 113 14 113 72c0 59 -35 73 -113 73h-164v-145h164z" />
    <glyph glyph-name="afii10019" unicode="&#x412;" horiz-adv-x="1012" 
d="M664 726c189 0 278 -42 278 -181c0 -71 -33 -126 -96 -159c83 -27 126 -88 126 -179c0 -137 -90 -207 -271 -207h-621v726h584zM361 556v-103h189c67 0 98 5 98 52c0 49 -32 51 -98 51h-189zM361 181h199c74 0 110 5 110 59s-34 61 -110 61h-199v-120z" />
    <glyph glyph-name="afii10020" unicode="&#x413;" horiz-adv-x="813" 
d="M79 726h725v-181h-443v-545h-282v726z" />
    <glyph glyph-name="afii10021" unicode="&#x414;" horiz-adv-x="1053" 
d="M955 726v-553h80v-315h-268v142h-489v-142h-268v315h48c94 0 115 154 115 271v282h782zM674 173v372h-220v-98c0 -114 -15 -195 -50 -274h270z" />
    <glyph glyph-name="afii10022" unicode="&#x415;" horiz-adv-x="883" 
d="M79 0v726h769v-178h-488v-87h395v-178h-395v-96h512v-187h-793z" />
    <glyph glyph-name="afii10024" unicode="&#x416;" horiz-adv-x="1450" 
d="M584 726h282v-251l237 251h365l-290 -263l319 -465h-336l-177 308l-118 -111v-195h-282v195l-118 111l-177 -308h-336l319 465l-290 263h365l237 -251v251z" />
    <glyph glyph-name="afii10025" unicode="&#x417;" 
d="M28 240h291c15 -51 67 -73 160 -73c97 0 144 19 144 63c0 49 -42 61 -134 61h-132v167h120c84 0 127 5 127 46c0 36 -44 54 -131 54c-68 0 -106 -11 -113 -38h-306c11 147 145 206 415 206c293 0 433 -57 433 -197c0 -78 -42 -127 -124 -144c97 -19 145 -74 145 -165
c0 -161 -145 -237 -440 -237c-301 0 -447 72 -455 257z" />
    <glyph glyph-name="afii10026" unicode="&#x418;" horiz-adv-x="1044" 
d="M963 0h-265v432l-305 -432h-315v726h272v-418l295 418h318v-726z" />
    <glyph glyph-name="afii10027" unicode="&#x419;" horiz-adv-x="1044" 
d="M280 953h161c1 -47 34 -71 94 -73c61 2 94 26 95 73h161c0 -104 -99 -166 -255 -167c-157 1 -256 63 -256 167zM963 0h-265v432l-305 -432h-315v726h272v-418l295 418h318v-726z" />
    <glyph glyph-name="afii10028" unicode="&#x41a;" horiz-adv-x="982" 
d="M80 0v726h281v-251l258 251h380l-302 -262l332 -464h-349l-196 295l-123 -100v-195h-281z" />
    <glyph glyph-name="afii10029" unicode="&#x41b;" horiz-adv-x="1053" 
d="M166 353v373h807v-726h-281v545h-245l-1 -198c0 -138 -27 -234 -80 -292c-46 -48 -104 -68 -200 -68c-56 0 -110 5 -166 15v169c17 -5 40 -7 70 -7c94 0 96 72 96 189z" />
    <glyph glyph-name="afii10030" unicode="&#x41c;" horiz-adv-x="1242" 
d="M79 0v726h417l123 -442l133 442h411v-726h-261v567l-172 -567h-220l-170 567v-567h-261z" />
    <glyph glyph-name="afii10031" unicode="&#x41d;" horiz-adv-x="1043" 
d="M80 0v726h281v-251h321v251h281v-726h-281v294h-321v-294h-281z" />
    <glyph glyph-name="afii10032" unicode="&#x41e;" horiz-adv-x="1052" 
d="M38 363c0 251 164 382 488 382s488 -131 488 -382s-164 -384 -488 -384s-488 133 -488 384zM340 363c0 -127 65 -195 186 -195s186 68 186 195s-65 196 -186 196s-186 -69 -186 -196z" />
    <glyph glyph-name="afii10033" unicode="&#x41f;" horiz-adv-x="1043" 
d="M80 0v726h883v-726h-281v545h-321v-545h-281z" />
    <glyph glyph-name="afii10034" unicode="&#x420;" 
d="M80 0v726h543c208 0 321 -88 321 -235c0 -148 -113 -236 -321 -236h-262v-255h-281zM515 570h-154v-157h154c84 0 122 16 122 79c0 62 -38 78 -122 78z" />
    <glyph glyph-name="afii10035" unicode="&#x421;" horiz-adv-x="1034" 
d="M685 421c-9 90 -65 138 -159 138c-121 0 -186 -69 -186 -196s65 -195 186 -195c86 0 141 39 158 118h324c-29 -199 -193 -305 -482 -305c-324 0 -488 131 -488 382s164 382 488 382c304 0 470 -117 480 -324h-321z" />
    <glyph glyph-name="afii10036" unicode="&#x422;" horiz-adv-x="811" 
d="M264 0v542h-262v184h807v-184h-263v-542h-282z" />
    <glyph glyph-name="afii10037" unicode="&#x423;" horiz-adv-x="837" 
d="M141 0v173c85 -28 136 -14 160 45l-344 508h330l141 -319l129 319h323l-300 -526c-58 -101 -81 -126 -104 -151c-45 -50 -117 -68 -185 -68c-53 0 -98 8 -150 19z" />
    <glyph glyph-name="afii10038" unicode="&#x424;" horiz-adv-x="1374" 
d="M827 727v-122l214 -1c208 0 309 -90 309 -238s-101 -232 -309 -232l-214 1v-135h-281v135h-214c-208 0 -309 88 -309 236s101 234 309 234h214v122h281zM827 449v-156h106c84 0 122 16 122 78s-38 78 -122 78h-106zM546 293v156h-108c-84 0 -120 -15 -120 -77
s38 -79 122 -79h106z" />
    <glyph glyph-name="afii10039" unicode="&#x425;" horiz-adv-x="907" 
d="M-25 0l323 383l-277 343h340l99 -157l108 157h335l-281 -343l317 -383h-351l-130 195l-133 -195h-350z" />
    <glyph glyph-name="afii10040" unicode="&#x426;" horiz-adv-x="1061" 
d="M80 725h281l-1 -534h321l1 534h281l1 -534h80l-1 -333h-268v142h-695v725z" />
    <glyph glyph-name="afii10041" unicode="&#x427;" horiz-adv-x="1043" 
d="M963 726v-726h-281v302c-55 -15 -135 -29 -218 -29c-171 0 -351 45 -351 234v219h281v-164c0 -104 64 -123 141 -123c60 0 115 14 147 25v262h281z" />
    <glyph glyph-name="afii10042" unicode="&#x428;" horiz-adv-x="1425" 
d="M576 726h272v-535h218v535h271v-726h-1250v726h271v-535h218v535z" />
    <glyph glyph-name="afii10043" unicode="&#x429;" horiz-adv-x="1435" 
d="M1149 0h-1062v726h271v-535h218v535h272v-535h218v535h271v-553h80v-315h-268v142z" />
    <glyph glyph-name="afii10044" unicode="&#x42a;" horiz-adv-x="1159" 
d="M279 0v570h-287v156h568v-270h276c201 0 307 -82 307 -226c0 -143 -112 -230 -314 -230h-550zM724 156c78 0 112 14 112 72c0 59 -34 73 -112 73h-164v-145h164z" />
    <glyph glyph-name="afii10045" unicode="&#x42b;" horiz-adv-x="1441" 
d="M80 726h281v-270h277c201 0 306 -82 306 -226c0 -143 -105 -230 -306 -230h-558v726zM525 156c78 0 113 14 113 72c0 59 -35 73 -113 73h-164v-145h164zM1079 0v726h281v-726h-281z" />
    <glyph glyph-name="afii10046" unicode="&#x42c;" 
d="M80 726h281v-270h277c201 0 306 -82 306 -226c0 -143 -110 -230 -312 -230h-552v726zM525 156c78 0 113 14 113 72c0 59 -35 73 -113 73h-164v-145h164z" />
    <glyph glyph-name="afii10047" unicode="&#x42d;" horiz-adv-x="1034" 
d="M349 421h-321c10 207 176 324 480 324c324 0 488 -131 488 -382s-164 -382 -488 -382c-289 0 -453 106 -482 305h324c17 -79 72 -118 158 -118c87 0 152 28 174 108h-244v161h249c-22 78 -85 122 -179 122s-150 -48 -159 -138z" />
    <glyph glyph-name="afii10048" unicode="&#x42e;" horiz-adv-x="1496" 
d="M495 475c44 177 204 270 475 270c324 0 488 -131 488 -382s-164 -382 -488 -382c-292 0 -454 107 -483 313h-123v-294h-281v726h281v-251h131zM784 363c0 -127 65 -195 186 -195s186 68 186 195s-65 196 -186 196s-186 -69 -186 -196z" />
    <glyph glyph-name="afii10049" unicode="&#x42f;" horiz-adv-x="966" 
d="M903 0h-281v270h-121l-155 -270h-336l197 287c-111 31 -168 103 -168 209c0 143 110 230 312 230h552v-726zM458 570c-78 0 -113 -14 -113 -72c0 -59 35 -73 113 -73h164v145h-164z" />
    <glyph glyph-name="afii10065" unicode="&#x430;" horiz-adv-x="895" 
d="M579 77c-68 -71 -156 -95 -283 -95c-184 0 -276 61 -276 184c0 42 11 77 30 101c52 65 138 71 259 79c176 12 258 0 258 46c0 29 -39 51 -112 51c-81 0 -122 -12 -129 -56h-259c11 144 133 190 386 190c149 0 249 -21 301 -61c64 -50 77 -113 77 -212v-217
c0 -37 5 -60 25 -75v-12h-261c-10 23 -15 49 -16 77zM578 262c-51 -25 -110 -23 -177 -29s-96 -16 -96 -51s33 -56 92 -56c113 0 182 50 182 122c0 5 0 9 -1 14z" />
    <glyph glyph-name="afii10066" unicode="&#x431;" horiz-adv-x="851" 
d="M248 395c39 61 144 97 239 97c192 0 335 -62 335 -249c0 -80 -39 -147 -116 -194c-73 -46 -166 -68 -280 -68c-252 0 -396 138 -396 328c0 104 31 188 78 241c29 33 54 57 78 73c49 31 98 54 177 67c107 18 149 23 173 55h266c-14 -61 -45 -104 -93 -130
c-60 -30 -337 -60 -392 -94c-38 -25 -67 -63 -69 -126zM422 124c81 0 133 42 133 106c0 72 -40 116 -133 116c-79 0 -127 -42 -127 -116c0 -56 56 -106 127 -106z" />
    <glyph glyph-name="afii10067" unicode="&#x432;" horiz-adv-x="822" 
d="M66 0v562h477c152 0 210 -49 210 -151c0 -50 -44 -105 -81 -118c69 -19 112 -73 112 -132c0 -134 -96 -161 -283 -161h-435zM317 228v-88h154c41 0 56 13 56 44c0 27 -15 44 -56 44h-154zM317 428v-80h134c39 0 50 14 50 40c0 27 -11 40 -50 40h-134z" />
    <glyph glyph-name="afii10068" unicode="&#x433;" horiz-adv-x="665" 
d="M67 0v562h588v-178h-337v-384h-251z" />
    <glyph glyph-name="afii10069" unicode="&#x434;" horiz-adv-x="865" 
d="M527 384h-141v-43c0 -85 -13 -121 -55 -162h196v205zM25 179h68c43 49 62 97 62 221v163h623v-384h74v-324h-231v145h-365v-145h-231v324z" />
    <glyph glyph-name="afii10070" unicode="&#x435;" horiz-adv-x="871" 
d="M838 171c-37 -123 -175 -190 -408 -190c-259 0 -400 112 -400 300s141 300 400 300c272 0 413 -130 413 -358h-544c0 -60 52 -96 146 -96c62 0 103 16 120 44h273zM286 343h299c-7 62 -58 98 -141 98c-89 0 -145 -34 -158 -98z" />
    <glyph glyph-name="afii10072" unicode="&#x436;" horiz-adv-x="1282" 
d="M515 562h252v-193l158 193h333l-218 -197l242 -365h-299l-127 217l-89 -75v-142h-252v142l-89 75l-127 -217h-299l242 365l-218 197h333l158 -193v193z" />
    <glyph glyph-name="afii10073" unicode="&#x437;" horiz-adv-x="822" 
d="M414 229h-126v111h112c58 0 100 26 100 61c0 27 -38 49 -93 49c-57 0 -90 -13 -100 -40h-254c12 62 52 106 121 134c58 22 140 33 246 33c139 0 329 -26 332 -151c2 -72 -37 -123 -129 -135c112 -20 163 -71 163 -150c0 -45 -30 -84 -74 -110c-62 -39 -227 -49 -303 -49
c-109 0 -215 9 -278 33c-80 31 -108 91 -108 157h253c0 -35 63 -64 127 -64c74 0 121 23 121 64c0 44 -43 57 -110 57z" />
    <glyph glyph-name="afii10074" unicode="&#x438;" horiz-adv-x="842" 
d="M46 0v562h251v-173l-8 -134l219 307h289v-562h-251v173l11 154l-225 -327h-286z" />
    <glyph glyph-name="afii10075" unicode="&#x439;" horiz-adv-x="842" 
d="M233 789h128c-2 -31 20 -62 73 -62c50 0 72 31 71 62h133c0 -49 -20 -88 -61 -115c-38 -25 -86 -38 -143 -38c-63 0 -111 11 -144 34c-38 26 -57 66 -57 119zM46 0v562h251v-173l-8 -134l219 307h289v-562h-251v173l11 154l-225 -327h-286z" />
    <glyph glyph-name="afii10076" unicode="&#x43a;" horiz-adv-x="852" 
d="M66 -1v560h251v-179l184 179h335l-221 -194l247 -365h-300l-134 217l-111 -91v-127h-251z" />
    <glyph glyph-name="afii10077" unicode="&#x43b;" horiz-adv-x="860" 
d="M118 562h678v-562h-251v386h-174v-174c0 -71 -29 -126 -62 -161c-38 -41 -97 -61 -175 -61c-62 0 -93 1 -134 13v147c17 -3 34 -4 49 -4c56 0 69 35 69 175v241z" />
    <glyph glyph-name="afii10078" unicode="&#x43c;" horiz-adv-x="1012" 
d="M66 562h334l106 -292l106 292h334v-562h-251v211l32 221l-150 -432h-142l-150 432l32 -221v-211h-251v562z" />
    <glyph glyph-name="afii10079" unicode="&#x43d;" horiz-adv-x="842" 
d="M66 0v562h251v-192h210v192h251v-562h-251v192h-210v-192h-251z" />
    <glyph glyph-name="afii10080" unicode="&#x43e;" horiz-adv-x="851" 
d="M30 281c0 188 140 300 396 300s395 -112 395 -300s-139 -300 -395 -300s-396 112 -396 300zM295 281c0 -78 52 -127 130 -127s130 49 130 127s-52 127 -130 127s-130 -49 -130 -127z" />
    <glyph glyph-name="afii10081" unicode="&#x43f;" horiz-adv-x="842" 
d="M66 0v562h712v-562h-251v384h-210v-384h-251z" />
    <glyph glyph-name="afii10082" unicode="&#x440;" horiz-adv-x="872" 
d="M68 -182v745h239l2 -54c61 46 134 68 223 68c188 0 309 -117 309 -296s-121 -295 -313 -295c-80 0 -147 19 -209 60v-228h-251zM319 281c0 -76 53 -124 129 -124c77 0 129 48 129 124c0 77 -52 125 -129 125c-76 0 -129 -48 -129 -125z" />
    <glyph glyph-name="afii10083" unicode="&#x441;" horiz-adv-x="867" 
d="M835 247c-18 -177 -153 -266 -402 -266c-261 0 -403 112 -403 300c0 187 142 300 403 300c240 0 374 -83 397 -243h-269c-20 52 -61 78 -122 78c-89 0 -144 -51 -144 -134c0 -82 55 -133 138 -133c70 0 122 38 134 98h268z" />
    <glyph glyph-name="afii10084" unicode="&#x442;" horiz-adv-x="683" 
d="M216 0v384h-210v178h672v-178h-210v-384h-252z" />
    <glyph glyph-name="afii10085" unicode="&#x443;" horiz-adv-x="726" 
d="M60 -8h56c69 0 98 19 114 86l-259 485h274l92 -200c14 -30 25 -59 32 -90c6 25 15 50 26 76l91 214h267l-238 -488c-50 -102 -88 -166 -115 -193c-47 -45 -94 -54 -165 -54h-175v164z" />
    <glyph glyph-name="afii10086" unicode="&#x444;" horiz-adv-x="1357" 
d="M804 281c0 -76 52 -125 129 -125s129 49 129 125s-53 125 -129 125s-129 -49 -129 -125zM553 517v214h251v-214c65 41 133 60 212 60c190 0 310 -117 310 -296c0 -180 -121 -295 -313 -295c-80 0 -147 19 -209 60v-228h-251v228c-62 -41 -129 -60 -209 -60
c-192 0 -313 115 -313 295c0 179 120 296 310 296c79 0 147 -19 212 -60zM553 281c0 76 -53 125 -129 125s-129 -49 -129 -125s52 -125 129 -125s129 49 129 125z" />
    <glyph glyph-name="afii10087" unicode="&#x445;" horiz-adv-x="775" 
d="M-51 0l261 295l-236 267h315l68 -105c11 -17 21 -34 26 -50c6 16 15 32 27 49l76 106h308l-238 -266l259 -296h-323l-80 114c-11 16 -22 32 -28 53c-6 -16 -13 -32 -24 -47l-87 -120h-324z" />
    <glyph glyph-name="afii10088" unicode="&#x446;" horiz-adv-x="862" 
d="M66 0v563h251v-384h209v384h251v-384h75v-324h-231v145h-555z" />
    <glyph glyph-name="afii10089" unicode="&#x447;" horiz-adv-x="813" 
d="M747 562v-562h-252v202c-61 -24 -109 -29 -193 -29c-168 0 -238 85 -238 263v126h252v-93c0 -78 19 -111 90 -111c39 0 66 5 89 17v187h252z" />
    <glyph glyph-name="afii10090" unicode="&#x448;" horiz-adv-x="1125" 
d="M445 562h232v-384h147v384h231v-562h-988v562h231v-384h147v384z" />
    <glyph glyph-name="afii10091" unicode="&#x449;" horiz-adv-x="1147" 
d="M445 563h231v-384h148v384h231v-384h75v-324h-232v145h-832v563h232v-384h147v384z" />
    <glyph glyph-name="afii10092" unicode="&#x44a;" horiz-adv-x="947" 
d="M446 562v-194h177c193 0 276 -58 276 -177c0 -137 -89 -191 -276 -191h-428v419h-222v143h473zM446 234v-94h132c49 0 63 15 63 48c0 29 -15 46 -65 46h-130z" />
    <glyph glyph-name="afii10093" unicode="&#x44b;" horiz-adv-x="1200" 
d="M70 0v562h252v-194h176c193 0 277 -58 277 -177c0 -137 -90 -191 -277 -191h-428zM322 234v-94h131c49 0 63 15 63 48c0 29 -15 46 -65 46h-129zM873 0v562h257v-562h-257z" />
    <glyph glyph-name="afii10094" unicode="&#x44c;" horiz-adv-x="822" 
d="M70 0v562h252v-194h176c193 0 277 -58 277 -177c0 -137 -90 -191 -277 -191h-428zM322 234v-94h131c49 0 63 15 63 48c0 29 -15 46 -65 46h-129z" />
    <glyph glyph-name="afii10095" unicode="&#x44d;" horiz-adv-x="867" 
d="M329 340h227c-3 56 -64 101 -128 101s-114 -18 -133 -54h-266c41 129 183 194 399 194c255 0 390 -113 390 -300c0 -188 -142 -300 -403 -300c-212 0 -339 62 -386 190h268c22 -31 59 -44 122 -44c56 0 125 15 134 93h-224v120z" />
    <glyph glyph-name="afii10096" unicode="&#x44e;" horiz-adv-x="1245" 
d="M439 379c42 128 173 202 381 202c256 0 395 -112 395 -300s-139 -300 -395 -300c-217 0 -352 80 -387 220h-97v-201h-251v562h251v-183h103zM689 281c0 -78 51 -127 130 -127c78 0 129 49 129 127s-51 127 -129 127c-79 0 -130 -49 -130 -127z" />
    <glyph glyph-name="afii10097" unicode="&#x44f;" horiz-adv-x="808" 
d="M739 562v-562h-251v194h-63l-134 -194h-264l158 206c-89 26 -146 85 -146 172c0 137 93 184 280 184h420zM488 328v94h-134c-49 0 -63 -15 -63 -48c0 -29 15 -46 65 -46h132z" />
    <glyph glyph-name="Euro" unicode="&#x20ac;" horiz-adv-x="860" 
d="M772 677v-172c-28 19 -95 40 -203 40c-139 0 -186 -49 -206 -96h345l-45 -87h-309c-1 -6 -1 -18 -1 -20c0 -10 1 -22 3 -29h282l-44 -86h-218c22 -41 74 -65 192 -65c77 0 171 22 204 48v-185c-31 -18 -96 -43 -211 -43c-283 0 -392 94 -433 245h-114l45 86h57
c-1 9 -1 16 -1 24s0 15 1 25h-102l45 87h66c42 153 140 277 435 277c114 0 187 -28 212 -49z" />
    </font>
</defs>
</svg>
