<svg data-name="Слой 1" xmlns="http://www.w3.org/2000/svg" viewBox="0 0 640 610"><path d="M526.635 198.524c-21.732-37.627-66.834-56.52-120.052-55.631l8.756-41.875-69.48 41.384 47.05 65.882 11.027-52.731c25.968 8.958 46.952 24.61 59.84 46.816 15.408 26.676 16.784 58.752 6.558 91.384h-84.265l-9.372 42.175h74.1c-21.645 35.204-55.911 68.577-99.68 93.792a300.37 300.37 0 01-41.906 20.165l8.644 11.63c31.477-5.533 64.457-17.351 96.122-35.64 101.101-58.245 151.557-160.103 112.658-227.351zM236.064 454.447c-25.968-8.958-46.953-24.609-59.84-46.816-38.9-67.343 11.557-169.106 112.658-227.35a300.327 300.327 0 0141.907-20.166l-8.644-11.63c-31.478 5.534-64.457 17.352-96.122 35.64-101.1 58.246-151.558 160.103-112.658 227.351 21.732 37.627 66.835 56.52 120.052 55.632l-8.756 41.874 69.48-41.383-47.051-65.883z" fill="#fff"/></svg>